<?xml version="1.0" encoding="utf-8" standalone="no"?>
<!DOCTYPE svg PUBLIC "-//W3C//DTD SVG 1.1//EN"
  "http://www.w3.org/Graphics/SVG/1.1/DTD/svg11.dtd">
<svg height="260.44pt" version="1.1" viewBox="0 0 409 260.44" width="409pt" xmlns="http://www.w3.org/2000/svg" xmlns:xlink="http://www.w3.org/1999/xlink">
 <metadata>
  <rdf:RDF xmlns:cc="http://creativecommons.org/ns#" xmlns:dc="http://purl.org/dc/elements/1.1/" xmlns:rdf="http://www.w3.org/1999/02/22-rdf-syntax-ns#">
   <cc:Work>
    <dc:type rdf:resource="http://purl.org/dc/dcmitype/StillImage"/>
    <dc:date>2021-05-19T20:31:26.541607</dc:date>
    <dc:format>image/svg+xml</dc:format>
    <dc:creator>
     <cc:Agent>
      <dc:title>Matplotlib v3.4.1, https://matplotlib.org/</dc:title>
     </cc:Agent>
    </dc:creator>
   </cc:Work>
  </rdf:RDF>
 </metadata>
 <defs>
  <style type="text/css">*{stroke-linecap:butt;stroke-linejoin:round;}</style>
 </defs>
 <g id="figure_1">
  <g id="patch_1">
   <path d="M 0 260.44 
L 409 260.44 
L 409 0 
L 0 0 
z
" style="fill:none;"/>
  </g>
  <g id="axes_1">
   <g id="patch_2">
    <path d="M 67 224.64 
L 401.8 224.64 
L 401.8 7.2 
L 67 7.2 
z
" style="fill:#ffffff;"/>
   </g>
   <g id="patch_3">
    <path clip-path="url(#p9f5a5aec5e)" d="M 67 8.06976 
L 385.857143 8.06976 
L 385.857143 15.02784 
L 67 15.02784 
z
" style="fill:#447b63;"/>
   </g>
   <g id="patch_4">
    <path clip-path="url(#p9f5a5aec5e)" d="M 67 16.76736 
L 250.159737 16.76736 
L 250.159737 23.72544 
L 67 23.72544 
z
" style="fill:#51846e;"/>
   </g>
   <g id="patch_5">
    <path clip-path="url(#p9f5a5aec5e)" d="M 67 25.46496 
L 206.06205 25.46496 
L 206.06205 32.42304 
L 67 32.42304 
z
" style="fill:#608f7a;"/>
   </g>
   <g id="patch_6">
    <path clip-path="url(#p9f5a5aec5e)" d="M 67 34.16256 
L 202.598154 34.16256 
L 202.598154 41.12064 
L 67 41.12064 
z
" style="fill:#6e9986;"/>
   </g>
   <g id="patch_7">
    <path clip-path="url(#p9f5a5aec5e)" d="M 67 42.86016 
L 172.69351 42.86016 
L 172.69351 49.81824 
L 67 49.81824 
z
" style="fill:#7ca291;"/>
   </g>
   <g id="patch_8">
    <path clip-path="url(#p9f5a5aec5e)" d="M 67 51.55776 
L 169.656398 51.55776 
L 169.656398 58.51584 
L 67 58.51584 
z
" style="fill:#8aac9d;"/>
   </g>
   <g id="patch_9">
    <path clip-path="url(#p9f5a5aec5e)" d="M 67 60.25536 
L 156.475725 60.25536 
L 156.475725 67.21344 
L 67 67.21344 
z
" style="fill:#99b7aa;"/>
   </g>
   <g id="patch_10">
    <path clip-path="url(#p9f5a5aec5e)" d="M 67 68.95296 
L 150.163295 68.95296 
L 150.163295 75.91104 
L 67 75.91104 
z
" style="fill:#a7c1b5;"/>
   </g>
   <g id="patch_11">
    <path clip-path="url(#p9f5a5aec5e)" d="M 67 77.65056 
L 131.31533 77.65056 
L 131.31533 84.60864 
L 67 84.60864 
z
" style="fill:#b5cbc1;"/>
   </g>
   <g id="patch_12">
    <path clip-path="url(#p9f5a5aec5e)" d="M 67 86.34816 
L 128.972981 86.34816 
L 128.972981 93.30624 
L 67 93.30624 
z
" style="fill:#c4d5cd;"/>
   </g>
   <g id="patch_13">
    <path clip-path="url(#p9f5a5aec5e)" d="M 67 95.04576 
L 128.41717 95.04576 
L 128.41717 102.00384 
L 67 102.00384 
z
" style="fill:#d1ded8;"/>
   </g>
   <g id="patch_14">
    <path clip-path="url(#p9f5a5aec5e)" d="M 67 103.74336 
L 125.677813 103.74336 
L 125.677813 110.70144 
L 67 110.70144 
z
" style="fill:#e0e9e4;"/>
   </g>
   <g id="patch_15">
    <path clip-path="url(#p9f5a5aec5e)" d="M 67 112.44096 
L 110.154792 112.44096 
L 110.154792 119.39904 
L 67 119.39904 
z
" style="fill:#f2f1f1;"/>
   </g>
   <g id="patch_16">
    <path clip-path="url(#p9f5a5aec5e)" d="M 67 121.13856 
L 102.502459 121.13856 
L 102.502459 128.09664 
L 67 128.09664 
z
" style="fill:#efe4e5;"/>
   </g>
   <g id="patch_17">
    <path clip-path="url(#p9f5a5aec5e)" d="M 67 129.83616 
L 101.122856 129.83616 
L 101.122856 136.79424 
L 67 136.79424 
z
" style="fill:#ebd6d8;"/>
   </g>
   <g id="patch_18">
    <path clip-path="url(#p9f5a5aec5e)" d="M 67 138.53376 
L 99.723402 138.53376 
L 99.723402 145.49184 
L 67 145.49184 
z
" style="fill:#e7c8ca;"/>
   </g>
   <g id="patch_19">
    <path clip-path="url(#p9f5a5aec5e)" d="M 67 147.23136 
L 98.711031 147.23136 
L 98.711031 154.18944 
L 67 154.18944 
z
" style="fill:#e4bbbe;"/>
   </g>
   <g id="patch_20">
    <path clip-path="url(#p9f5a5aec5e)" d="M 67 155.92896 
L 91.495406 155.92896 
L 91.495406 162.88704 
L 67 162.88704 
z
" style="fill:#e0adb1;"/>
   </g>
   <g id="patch_21">
    <path clip-path="url(#p9f5a5aec5e)" d="M 67 164.62656 
L 91.316753 164.62656 
L 91.316753 171.58464 
L 67 171.58464 
z
" style="fill:#dc9fa3;"/>
   </g>
   <g id="patch_22">
    <path clip-path="url(#p9f5a5aec5e)" d="M 67 173.32416 
L 88.934704 173.32416 
L 88.934704 180.28224 
L 67 180.28224 
z
" style="fill:#d89297;"/>
   </g>
   <g id="patch_23">
    <path clip-path="url(#p9f5a5aec5e)" d="M 67 182.02176 
L 87.386372 182.02176 
L 87.386372 188.97984 
L 67 188.97984 
z
" style="fill:#d5848a;"/>
   </g>
   <g id="patch_24">
    <path clip-path="url(#p9f5a5aec5e)" d="M 67 190.71936 
L 81.639678 190.71936 
L 81.639678 197.67744 
L 67 197.67744 
z
" style="fill:#d1767d;"/>
   </g>
   <g id="patch_25">
    <path clip-path="url(#p9f5a5aec5e)" d="M 67 199.41696 
L 79.843216 199.41696 
L 79.843216 206.37504 
L 67 206.37504 
z
" style="fill:#cd6971;"/>
   </g>
   <g id="patch_26">
    <path clip-path="url(#p9f5a5aec5e)" d="M 67 208.11456 
L 79.158376 208.11456 
L 79.158376 215.07264 
L 67 215.07264 
z
" style="fill:#c95b63;"/>
   </g>
   <g id="patch_27">
    <path clip-path="url(#p9f5a5aec5e)" d="M 67 216.81216 
L 71.664846 216.81216 
L 71.664846 223.77024 
L 67 223.77024 
z
" style="fill:#c64e57;"/>
   </g>
   <g id="matplotlib.axis_1">
    <g id="xtick_1">
     <g id="line2d_1">
      <defs>
       <path d="M 0 0 
L 0 3.5 
" id="mdea50d83c1" style="stroke:#000000;stroke-width:0.8;"/>
      </defs>
      <g>
       <use style="stroke:#000000;stroke-width:0.8;" x="67" xlink:href="#mdea50d83c1" y="224.64"/>
      </g>
     </g>
     <g id="text_1">
      <!-- 0 -->
      <g transform="translate(64.5 238.899375)scale(0.1 -0.1)">
       <defs>
        <path d="M 1600 4512 
Q 2259 4512 2611 3961 
Q 2963 3411 2963 2240 
Q 2963 1645 2873 1225 
Q 2784 806 2608 537 
Q 2432 269 2179 144 
Q 1926 19 1600 19 
Q 1261 19 1008 144 
Q 755 269 582 537 
Q 410 806 323 1225 
Q 237 1645 237 2240 
Q 237 3411 582 3961 
Q 928 4512 1600 4512 
z
M 1594 563 
Q 1786 563 1917 656 
Q 2048 749 2125 950 
Q 2202 1152 2237 1469 
Q 2272 1786 2272 2227 
Q 2272 2400 2265 2550 
Q 2259 2701 2246 2842 
L 1069 992 
Q 1210 563 1594 563 
z
M 1600 3949 
Q 1274 3949 1085 3523 
Q 896 3098 915 2221 
Q 922 2074 925 1939 
Q 928 1805 941 1690 
L 2112 3520 
Q 1952 3949 1600 3949 
z
" id="D2CodingBold-30" transform="scale(0.015625)"/>
       </defs>
       <use xlink:href="#D2CodingBold-30"/>
      </g>
     </g>
    </g>
    <g id="xtick_2">
     <g id="line2d_2">
      <g>
       <use style="stroke:#000000;stroke-width:0.8;" x="116.626026" xlink:href="#mdea50d83c1" y="224.64"/>
      </g>
     </g>
     <g id="text_2">
      <!-- 5000 -->
      <g transform="translate(106.626026 238.899375)scale(0.1 -0.1)">
       <defs>
        <path d="M 314 877 
Q 435 800 579 745 
Q 723 691 873 656 
Q 1024 621 1168 605 
Q 1312 589 1427 595 
Q 1600 602 1737 678 
Q 1875 755 1971 880 
Q 2067 1005 2118 1161 
Q 2170 1318 2170 1491 
Q 2170 1920 1958 2125 
Q 1747 2330 1350 2330 
Q 1222 2330 1059 2301 
Q 896 2272 710 2240 
Q 672 2234 579 2221 
Q 486 2208 454 2202 
L 602 4442 
L 2682 4442 
L 2682 3872 
L 1222 3872 
Q 1203 3597 1177 3353 
Q 1152 3110 1139 2829 
Q 1222 2842 1324 2854 
Q 1427 2867 1530 2867 
Q 2182 2867 2534 2502 
Q 2886 2138 2886 1542 
Q 2886 1222 2784 947 
Q 2682 672 2490 470 
Q 2298 269 2029 150 
Q 1760 32 1427 32 
Q 1235 32 1075 51 
Q 915 70 774 105 
Q 634 141 506 195 
Q 378 250 243 320 
L 243 877 
L 314 877 
z
" id="D2CodingBold-35" transform="scale(0.015625)"/>
       </defs>
       <use xlink:href="#D2CodingBold-35"/>
       <use x="49.999985" xlink:href="#D2CodingBold-30"/>
       <use x="99.999969" xlink:href="#D2CodingBold-30"/>
       <use x="149.999954" xlink:href="#D2CodingBold-30"/>
      </g>
     </g>
    </g>
    <g id="xtick_3">
     <g id="line2d_3">
      <g>
       <use style="stroke:#000000;stroke-width:0.8;" x="166.252052" xlink:href="#mdea50d83c1" y="224.64"/>
      </g>
     </g>
     <g id="text_3">
      <!-- 10000 -->
      <g transform="translate(153.752052 238.899375)scale(0.1 -0.1)">
       <defs>
        <path d="M 646 102 
L 646 698 
L 1472 698 
Q 1472 1472 1469 2179 
Q 1466 2886 1466 3661 
Q 1376 3603 1257 3539 
Q 1139 3475 1014 3414 
Q 890 3354 771 3299 
Q 653 3245 570 3206 
L 474 3206 
L 474 3814 
Q 774 3949 1062 4115 
Q 1350 4282 1510 4442 
L 2170 4442 
L 2170 698 
L 2950 698 
L 2950 102 
L 646 102 
z
" id="D2CodingBold-31" transform="scale(0.015625)"/>
       </defs>
       <use xlink:href="#D2CodingBold-31"/>
       <use x="49.999985" xlink:href="#D2CodingBold-30"/>
       <use x="99.999969" xlink:href="#D2CodingBold-30"/>
       <use x="149.999954" xlink:href="#D2CodingBold-30"/>
       <use x="199.999939" xlink:href="#D2CodingBold-30"/>
      </g>
     </g>
    </g>
    <g id="xtick_4">
     <g id="line2d_4">
      <g>
       <use style="stroke:#000000;stroke-width:0.8;" x="215.878078" xlink:href="#mdea50d83c1" y="224.64"/>
      </g>
     </g>
     <g id="text_4">
      <!-- 15000 -->
      <g transform="translate(203.378078 238.899375)scale(0.1 -0.1)">
       <use xlink:href="#D2CodingBold-31"/>
       <use x="49.999985" xlink:href="#D2CodingBold-35"/>
       <use x="99.999969" xlink:href="#D2CodingBold-30"/>
       <use x="149.999954" xlink:href="#D2CodingBold-30"/>
       <use x="199.999939" xlink:href="#D2CodingBold-30"/>
      </g>
     </g>
    </g>
    <g id="xtick_5">
     <g id="line2d_5">
      <g>
       <use style="stroke:#000000;stroke-width:0.8;" x="265.504104" xlink:href="#mdea50d83c1" y="224.64"/>
      </g>
     </g>
     <g id="text_5">
      <!-- 20000 -->
      <g transform="translate(253.004104 238.899375)scale(0.1 -0.1)">
       <defs>
        <path d="M 339 3590 
L 339 4160 
Q 563 4314 864 4426 
Q 1165 4538 1491 4538 
Q 2093 4538 2461 4246 
Q 2829 3955 2829 3366 
Q 2829 3130 2771 2925 
Q 2714 2720 2614 2531 
Q 2515 2342 2384 2160 
Q 2253 1978 2099 1792 
L 1222 685 
L 2867 685 
L 2867 102 
L 333 102 
L 333 640 
L 1498 2086 
Q 1638 2259 1750 2412 
Q 1862 2566 1942 2720 
Q 2022 2874 2064 3034 
Q 2106 3194 2106 3379 
Q 2106 3674 1939 3811 
Q 1773 3949 1491 3949 
Q 1299 3949 1001 3869 
Q 704 3789 410 3590 
L 339 3590 
z
" id="D2CodingBold-32" transform="scale(0.015625)"/>
       </defs>
       <use xlink:href="#D2CodingBold-32"/>
       <use x="49.999985" xlink:href="#D2CodingBold-30"/>
       <use x="99.999969" xlink:href="#D2CodingBold-30"/>
       <use x="149.999954" xlink:href="#D2CodingBold-30"/>
       <use x="199.999939" xlink:href="#D2CodingBold-30"/>
      </g>
     </g>
    </g>
    <g id="xtick_6">
     <g id="line2d_6">
      <g>
       <use style="stroke:#000000;stroke-width:0.8;" x="315.13013" xlink:href="#mdea50d83c1" y="224.64"/>
      </g>
     </g>
     <g id="text_6">
      <!-- 25000 -->
      <g transform="translate(302.63013 238.899375)scale(0.1 -0.1)">
       <use xlink:href="#D2CodingBold-32"/>
       <use x="49.999985" xlink:href="#D2CodingBold-35"/>
       <use x="99.999969" xlink:href="#D2CodingBold-30"/>
       <use x="149.999954" xlink:href="#D2CodingBold-30"/>
       <use x="199.999939" xlink:href="#D2CodingBold-30"/>
      </g>
     </g>
    </g>
    <g id="xtick_7">
     <g id="line2d_7">
      <g>
       <use style="stroke:#000000;stroke-width:0.8;" x="364.756157" xlink:href="#mdea50d83c1" y="224.64"/>
      </g>
     </g>
     <g id="text_7">
      <!-- 30000 -->
      <g transform="translate(352.256157 238.899375)scale(0.1 -0.1)">
       <defs>
        <path d="M 1446 26 
Q 1082 26 790 99 
Q 499 173 250 301 
L 250 896 
L 326 896 
Q 448 826 592 771 
Q 736 717 886 681 
Q 1037 646 1181 630 
Q 1325 614 1446 614 
Q 1606 614 1747 668 
Q 1888 723 1990 812 
Q 2093 902 2150 1027 
Q 2208 1152 2208 1299 
Q 2208 2074 1389 2074 
L 973 2074 
L 973 2618 
L 1338 2618 
Q 1504 2624 1645 2662 
Q 1786 2701 1891 2784 
Q 1997 2867 2054 2998 
Q 2112 3130 2112 3328 
Q 2112 3488 2061 3603 
Q 2010 3718 1923 3795 
Q 1837 3872 1728 3907 
Q 1619 3942 1498 3942 
Q 1402 3942 1274 3926 
Q 1146 3910 1008 3878 
Q 870 3846 736 3798 
Q 602 3750 499 3686 
L 422 3686 
L 422 4230 
Q 883 4525 1472 4525 
Q 1741 4525 1990 4461 
Q 2240 4397 2429 4256 
Q 2618 4115 2730 3891 
Q 2842 3667 2842 3354 
Q 2842 3014 2662 2758 
Q 2483 2502 2227 2368 
Q 2515 2240 2723 1984 
Q 2931 1728 2931 1318 
Q 2931 1005 2819 765 
Q 2707 525 2508 361 
Q 2310 198 2038 112 
Q 1766 26 1446 26 
z
" id="D2CodingBold-33" transform="scale(0.015625)"/>
       </defs>
       <use xlink:href="#D2CodingBold-33"/>
       <use x="49.999985" xlink:href="#D2CodingBold-30"/>
       <use x="99.999969" xlink:href="#D2CodingBold-30"/>
       <use x="149.999954" xlink:href="#D2CodingBold-30"/>
       <use x="199.999939" xlink:href="#D2CodingBold-30"/>
      </g>
     </g>
    </g>
    <g id="text_8">
     <!-- count -->
     <g transform="translate(221.9 251.699375)scale(0.1 -0.1)">
      <defs>
       <path d="M 2829 922 
L 2829 294 
Q 2637 109 2393 64 
Q 2150 19 1888 19 
Q 1139 19 752 454 
Q 365 890 365 1709 
Q 365 2099 461 2416 
Q 557 2733 749 2960 
Q 941 3187 1222 3312 
Q 1504 3437 1882 3437 
Q 2400 3437 2810 3162 
L 2810 2560 
L 2720 2560 
Q 2541 2707 2320 2771 
Q 2099 2835 1901 2835 
Q 1670 2835 1510 2745 
Q 1350 2656 1254 2502 
Q 1158 2349 1113 2147 
Q 1069 1946 1069 1715 
Q 1069 1472 1110 1267 
Q 1152 1062 1254 915 
Q 1357 768 1520 688 
Q 1683 608 1926 608 
Q 2125 608 2342 681 
Q 2560 755 2733 922 
L 2829 922 
z
" id="D2CodingBold-63" transform="scale(0.015625)"/>
       <path d="M 1606 19 
Q 1210 19 944 153 
Q 678 288 521 518 
Q 365 749 301 1059 
Q 237 1370 237 1728 
Q 237 2086 304 2396 
Q 371 2707 528 2937 
Q 685 3168 947 3302 
Q 1210 3437 1606 3437 
Q 1990 3437 2249 3302 
Q 2509 3168 2669 2937 
Q 2829 2707 2899 2393 
Q 2970 2080 2970 1728 
Q 2970 1370 2902 1059 
Q 2835 749 2678 518 
Q 2522 288 2259 153 
Q 1997 19 1606 19 
z
M 1606 557 
Q 1952 557 2112 870 
Q 2272 1184 2272 1728 
Q 2272 2278 2112 2588 
Q 1952 2899 1606 2899 
Q 1248 2899 1091 2588 
Q 934 2278 934 1728 
Q 934 1184 1091 870 
Q 1248 557 1606 557 
z
" id="D2CodingBold-6f" transform="scale(0.015625)"/>
       <path d="M 352 3366 
L 1043 3366 
L 1043 1414 
Q 1043 960 1148 777 
Q 1254 595 1517 595 
Q 1651 595 1763 665 
Q 1875 736 1958 864 
Q 2042 992 2090 1168 
Q 2138 1344 2138 1555 
L 2138 3366 
L 2829 3366 
L 2829 102 
L 2176 102 
L 2157 538 
Q 2016 282 1808 160 
Q 1600 38 1389 38 
Q 1062 38 860 140 
Q 659 243 544 428 
Q 429 614 390 867 
Q 352 1120 352 1427 
L 352 3366 
z
" id="D2CodingBold-75" transform="scale(0.015625)"/>
       <path d="M 2848 102 
L 2157 102 
L 2157 2054 
Q 2157 2509 2051 2691 
Q 1946 2874 1683 2874 
Q 1549 2874 1437 2803 
Q 1325 2733 1241 2605 
Q 1158 2477 1110 2301 
Q 1062 2125 1062 1914 
L 1062 102 
L 371 102 
L 371 3366 
L 1024 3366 
L 1043 2931 
Q 1184 3187 1392 3308 
Q 1600 3430 1811 3430 
Q 2138 3430 2339 3328 
Q 2541 3226 2656 3040 
Q 2771 2854 2809 2601 
Q 2848 2349 2848 2042 
L 2848 102 
z
" id="D2CodingBold-6e" transform="scale(0.015625)"/>
       <path d="M 2790 774 
L 2790 243 
Q 2637 134 2435 86 
Q 2234 38 2048 38 
Q 1581 38 1305 265 
Q 1030 493 1030 979 
L 1030 2797 
L 384 2797 
L 384 3366 
L 1030 3366 
L 1030 4173 
L 1728 4506 
L 1728 3366 
L 2746 3366 
L 2746 2797 
L 1728 2797 
L 1728 1030 
Q 1728 621 2176 621 
Q 2336 621 2467 669 
Q 2598 717 2707 774 
L 2790 774 
z
" id="D2CodingBold-74" transform="scale(0.015625)"/>
      </defs>
      <use xlink:href="#D2CodingBold-63"/>
      <use x="49.999985" xlink:href="#D2CodingBold-6f"/>
      <use x="99.999969" xlink:href="#D2CodingBold-75"/>
      <use x="149.999954" xlink:href="#D2CodingBold-6e"/>
      <use x="199.999939" xlink:href="#D2CodingBold-74"/>
     </g>
    </g>
   </g>
   <g id="matplotlib.axis_2">
    <g id="ytick_1">
     <g id="line2d_8">
      <defs>
       <path d="M 0 0 
L -3.5 0 
" id="m8df877fe6f" style="stroke:#000000;stroke-width:0.8;"/>
      </defs>
      <g>
       <use style="stroke:#000000;stroke-width:0.8;" x="67" xlink:href="#m8df877fe6f" y="11.5488"/>
      </g>
     </g>
     <g id="text_9">
      <!-- 강서구 -->
      <g transform="translate(30 15.448019)scale(0.1 -0.1)">
       <defs>
        <path d="M 2803 4141 
Q 2554 4134 2182 4134 
Q 1811 4134 1402 4134 
L 832 4134 
L 832 4781 
L 1773 4781 
Q 2234 4781 2704 4781 
Q 3174 4781 3718 4794 
Q 3680 4243 3475 3744 
Q 3270 3245 2915 2832 
Q 2560 2419 2051 2102 
Q 1542 1786 896 1594 
L 442 2170 
Q 1517 2496 2099 2995 
Q 2682 3494 2803 4141 
z
M 6010 2918 
L 5120 2918 
L 5120 1530 
L 4333 1530 
L 4333 5030 
L 5120 5030 
L 5120 3584 
L 6010 3584 
L 6010 2918 
z
M 3251 1530 
Q 3738 1530 4109 1434 
Q 4480 1338 4729 1171 
Q 4979 1005 5107 777 
Q 5235 550 5235 288 
Q 5235 26 5107 -198 
Q 4979 -422 4729 -588 
Q 4480 -755 4109 -851 
Q 3738 -947 3251 -947 
Q 2765 -947 2397 -851 
Q 2029 -755 1779 -588 
Q 1530 -422 1405 -198 
Q 1280 26 1280 288 
Q 1280 550 1405 777 
Q 1530 1005 1779 1171 
Q 2029 1338 2397 1434 
Q 2765 1530 3251 1530 
z
M 3251 890 
Q 2931 890 2707 838 
Q 2483 787 2345 704 
Q 2208 621 2144 512 
Q 2080 403 2080 288 
Q 2080 173 2144 64 
Q 2208 -45 2345 -128 
Q 2483 -211 2707 -262 
Q 2931 -314 3251 -314 
Q 3571 -314 3795 -262 
Q 4019 -211 4160 -128 
Q 4301 -45 4365 64 
Q 4429 173 4429 288 
Q 4429 403 4365 512 
Q 4301 621 4160 704 
Q 4019 787 3795 838 
Q 3571 890 3251 890 
z
" id="D2CodingBold-ac15" transform="scale(0.015625)"/>
        <path d="M 3514 2483 
L 3514 3168 
L 4595 3168 
L 4595 5030 
L 5389 5030 
L 5389 -902 
L 4595 -902 
L 4595 2483 
L 3514 2483 
z
M 806 326 
L 269 806 
Q 672 1107 998 1472 
Q 1325 1837 1545 2304 
Q 1766 2771 1868 3353 
Q 1971 3936 1926 4678 
L 2746 4678 
Q 2765 3814 2611 3098 
Q 2861 2419 3261 1900 
Q 3661 1382 4262 973 
L 3763 416 
Q 2816 1082 2285 2106 
Q 2029 1555 1657 1116 
Q 1286 678 806 326 
z
" id="D2CodingBold-c11c" transform="scale(0.015625)"/>
        <path d="M 4173 2240 
Q 4256 2758 4307 3254 
Q 4358 3750 4358 4096 
L 1254 4096 
L 1254 4774 
L 5165 4774 
Q 5165 4122 5104 3450 
Q 5043 2778 4960 2240 
L 5939 2240 
L 5939 1568 
L 3648 1568 
L 3648 -870 
L 2842 -870 
L 2842 1568 
L 448 1568 
L 448 2240 
L 4173 2240 
z
" id="D2CodingBold-ad6c" transform="scale(0.015625)"/>
       </defs>
       <use xlink:href="#D2CodingBold-ac15"/>
       <use x="99.999985" xlink:href="#D2CodingBold-c11c"/>
       <use x="199.999969" xlink:href="#D2CodingBold-ad6c"/>
      </g>
     </g>
    </g>
    <g id="ytick_2">
     <g id="line2d_9">
      <g>
       <use style="stroke:#000000;stroke-width:0.8;" x="67" xlink:href="#m8df877fe6f" y="20.2464"/>
      </g>
     </g>
     <g id="text_10">
      <!-- 영등포구 -->
      <g transform="translate(20 24.155775)scale(0.1 -0.1)">
       <defs>
        <path d="M 3405 4422 
L 4595 4422 
L 4595 5030 
L 5389 5030 
L 5389 1536 
L 4595 1536 
L 4595 2458 
L 3488 2458 
Q 3283 2202 2969 2054 
Q 2656 1907 2266 1907 
Q 1920 1907 1638 2022 
Q 1357 2138 1152 2339 
Q 947 2541 835 2809 
Q 723 3078 723 3392 
Q 723 3706 835 3978 
Q 947 4250 1152 4451 
Q 1357 4653 1638 4771 
Q 1920 4890 2266 4890 
Q 2624 4890 2912 4765 
Q 3200 4640 3405 4422 
z
M 3776 3072 
L 4602 3072 
L 4602 3814 
L 3750 3814 
Q 3808 3610 3808 3392 
Q 3808 3309 3798 3229 
Q 3789 3149 3776 3072 
z
M 1498 3392 
Q 1498 3014 1706 2787 
Q 1914 2560 2266 2560 
Q 2611 2560 2819 2787 
Q 3027 3014 3027 3392 
Q 3027 3763 2819 3996 
Q 2611 4230 2266 4230 
Q 1920 4230 1709 3996 
Q 1498 3763 1498 3392 
z
M 3462 1587 
Q 3962 1587 4336 1488 
Q 4710 1389 4960 1219 
Q 5210 1050 5334 819 
Q 5459 589 5459 320 
Q 5459 51 5334 -179 
Q 5210 -410 4960 -579 
Q 4710 -749 4336 -848 
Q 3962 -947 3462 -947 
Q 2963 -947 2592 -848 
Q 2221 -749 1974 -579 
Q 1728 -410 1603 -179 
Q 1478 51 1478 320 
Q 1478 589 1603 819 
Q 1728 1050 1974 1219 
Q 2221 1389 2592 1488 
Q 2963 1587 3462 1587 
z
M 3462 941 
Q 3136 941 2912 889 
Q 2688 838 2547 752 
Q 2406 666 2342 554 
Q 2278 442 2278 320 
Q 2278 198 2342 86 
Q 2406 -26 2547 -112 
Q 2688 -198 2912 -249 
Q 3136 -301 3462 -301 
Q 3789 -301 4016 -249 
Q 4243 -198 4387 -112 
Q 4531 -26 4595 86 
Q 4659 198 4659 320 
Q 4659 442 4595 554 
Q 4531 666 4387 752 
Q 4243 838 4016 889 
Q 3789 941 3462 941 
z
" id="D2CodingBold-c601" transform="scale(0.015625)"/>
        <path d="M 3200 1370 
Q 4192 1370 4713 1050 
Q 5235 730 5235 205 
Q 5235 -320 4713 -640 
Q 4192 -960 3200 -960 
Q 2195 -960 1680 -640 
Q 1165 -320 1165 205 
Q 1165 730 1686 1050 
Q 2208 1370 3200 1370 
z
M 3200 742 
Q 2861 742 2630 697 
Q 2400 653 2259 579 
Q 2118 506 2057 406 
Q 1997 307 1997 205 
Q 1997 96 2057 0 
Q 2118 -96 2259 -169 
Q 2400 -243 2630 -288 
Q 2861 -333 3200 -333 
Q 3539 -333 3769 -288 
Q 4000 -243 4141 -169 
Q 4282 -96 4342 0 
Q 4403 96 4403 205 
Q 4403 307 4342 406 
Q 4282 506 4141 579 
Q 4000 653 3769 697 
Q 3539 742 3200 742 
z
M 1267 4870 
L 5088 4870 
L 5088 4198 
L 2061 4198 
L 2061 3456 
L 5120 3456 
L 5120 2803 
L 1267 2803 
L 1267 4870 
z
M 6003 2387 
L 6003 1722 
L 397 1722 
L 397 2387 
L 6003 2387 
z
" id="D2CodingBold-b4f1" transform="scale(0.015625)"/>
        <path d="M 1158 3923 
L 1158 4582 
L 5248 4582 
L 5248 3923 
L 1158 3923 
z
M 1056 1600 
L 1056 2259 
L 1837 2259 
L 1792 3731 
L 2586 3731 
L 2618 2253 
L 3776 2253 
L 3827 3731 
L 4614 3731 
L 4544 2259 
L 5344 2259 
L 5344 1600 
L 3578 1600 
L 3578 589 
L 5939 589 
L 5939 -70 
L 448 -70 
L 448 589 
L 2771 589 
L 2771 1600 
L 1056 1600 
z
" id="D2CodingBold-d3ec" transform="scale(0.015625)"/>
       </defs>
       <use xlink:href="#D2CodingBold-c601"/>
       <use x="99.999985" xlink:href="#D2CodingBold-b4f1"/>
       <use x="199.999969" xlink:href="#D2CodingBold-d3ec"/>
       <use x="299.999954" xlink:href="#D2CodingBold-ad6c"/>
      </g>
     </g>
    </g>
    <g id="ytick_3">
     <g id="line2d_10">
      <g>
       <use style="stroke:#000000;stroke-width:0.8;" x="67" xlink:href="#m8df877fe6f" y="28.944"/>
      </g>
     </g>
     <g id="text_11">
      <!-- 송파구 -->
      <g transform="translate(30 32.843219)scale(0.1 -0.1)">
       <defs>
        <path d="M 3200 1331 
Q 4192 1331 4713 1020 
Q 5235 710 5235 198 
Q 5235 -51 5104 -262 
Q 4973 -474 4713 -627 
Q 4454 -781 4073 -864 
Q 3693 -947 3200 -947 
Q 2701 -947 2320 -864 
Q 1939 -781 1683 -627 
Q 1427 -474 1296 -262 
Q 1165 -51 1165 198 
Q 1165 710 1686 1020 
Q 2208 1331 3200 1331 
z
M 3200 704 
Q 2861 704 2630 662 
Q 2400 621 2259 550 
Q 2118 480 2057 387 
Q 1997 294 1997 198 
Q 1997 102 2057 6 
Q 2118 -90 2259 -160 
Q 2400 -230 2630 -275 
Q 2861 -320 3200 -320 
Q 3539 -320 3769 -275 
Q 4000 -230 4141 -160 
Q 4282 -90 4342 6 
Q 4403 102 4403 198 
Q 4403 294 4342 387 
Q 4282 480 4141 550 
Q 4000 621 3769 662 
Q 3539 704 3200 704 
z
M 3533 4301 
Q 3859 3904 4419 3648 
Q 4979 3392 5619 3296 
L 5197 2675 
Q 4557 2790 4035 3062 
Q 3514 3334 3130 3706 
Q 2938 3501 2704 3325 
Q 2470 3149 2208 3011 
Q 1946 2874 1667 2774 
Q 1389 2675 1120 2630 
L 710 3226 
Q 1197 3322 1597 3491 
Q 1997 3661 2278 3891 
Q 2560 4122 2713 4410 
Q 2867 4698 2861 5030 
L 3674 5030 
Q 3693 4659 3533 4301 
z
M 3610 3027 
L 3610 2291 
L 6003 2291 
L 6003 1626 
L 397 1626 
L 397 2291 
L 2810 2291 
L 2810 3027 
L 3610 3027 
z
" id="D2CodingBold-c1a1" transform="scale(0.015625)"/>
        <path d="M 442 3885 
L 442 4538 
L 4000 4538 
L 4000 3885 
L 442 3885 
z
M 1005 1331 
L 941 3693 
L 1709 3693 
L 1766 1331 
L 2080 1331 
Q 2214 1331 2348 1334 
Q 2483 1338 2624 1344 
L 2656 3693 
L 3430 3693 
L 3392 1402 
Q 3770 1446 4166 1536 
L 4166 883 
Q 3718 755 3168 710 
Q 2618 666 2086 666 
L 371 666 
L 371 1331 
L 1005 1331 
z
M 6061 2278 
L 5184 2278 
L 5184 -902 
L 4390 -902 
L 4390 5030 
L 5184 5030 
L 5184 2957 
L 6061 2957 
L 6061 2278 
z
" id="D2CodingBold-d30c" transform="scale(0.015625)"/>
       </defs>
       <use xlink:href="#D2CodingBold-c1a1"/>
       <use x="99.999985" xlink:href="#D2CodingBold-d30c"/>
       <use x="199.999969" xlink:href="#D2CodingBold-ad6c"/>
      </g>
     </g>
    </g>
    <g id="ytick_4">
     <g id="line2d_11">
      <g>
       <use style="stroke:#000000;stroke-width:0.8;" x="67" xlink:href="#m8df877fe6f" y="37.6416"/>
      </g>
     </g>
     <g id="text_12">
      <!-- 마포구 -->
      <g transform="translate(30 41.505662)scale(0.1 -0.1)">
       <defs>
        <path d="M 3488 672 
L 768 672 
L 768 4538 
L 3488 4538 
L 3488 672 
z
M 2701 1331 
L 2701 3885 
L 1568 3885 
L 1568 1331 
L 2701 1331 
z
M 6061 2323 
L 5133 2323 
L 5133 -902 
L 4339 -902 
L 4339 5030 
L 5133 5030 
L 5133 3002 
L 6061 3002 
L 6061 2323 
z
" id="D2CodingBold-b9c8" transform="scale(0.015625)"/>
       </defs>
       <use xlink:href="#D2CodingBold-b9c8"/>
       <use x="99.999985" xlink:href="#D2CodingBold-d3ec"/>
       <use x="199.999969" xlink:href="#D2CodingBold-ad6c"/>
      </g>
     </g>
    </g>
    <g id="ytick_5">
     <g id="line2d_12">
      <g>
       <use style="stroke:#000000;stroke-width:0.8;" x="67" xlink:href="#m8df877fe6f" y="46.3392"/>
      </g>
     </g>
     <g id="text_13">
      <!-- 강남구 -->
      <g transform="translate(30 50.238419)scale(0.1 -0.1)">
       <defs>
        <path d="M 6010 3142 
L 5120 3142 
L 5120 1690 
L 4333 1690 
L 4333 5030 
L 5120 5030 
L 5120 3808 
L 6010 3808 
L 6010 3142 
z
M 5120 -813 
L 1414 -813 
L 1414 1440 
L 5120 1440 
L 5120 -813 
z
M 4333 781 
L 2208 781 
L 2208 -154 
L 4333 -154 
L 4333 781 
z
M 1933 2054 
L 710 2054 
L 710 4845 
L 1517 4845 
L 1517 2707 
L 2112 2707 
Q 2675 2707 3171 2774 
Q 3667 2842 4166 2970 
L 4166 2323 
Q 3706 2189 3120 2121 
Q 2534 2054 1933 2054 
z
" id="D2CodingBold-b0a8" transform="scale(0.015625)"/>
       </defs>
       <use xlink:href="#D2CodingBold-ac15"/>
       <use x="99.999985" xlink:href="#D2CodingBold-b0a8"/>
       <use x="199.999969" xlink:href="#D2CodingBold-ad6c"/>
      </g>
     </g>
    </g>
    <g id="ytick_6">
     <g id="line2d_13">
      <g>
       <use style="stroke:#000000;stroke-width:0.8;" x="67" xlink:href="#m8df877fe6f" y="55.0368"/>
      </g>
     </g>
     <g id="text_14">
      <!-- 구로구 -->
      <g transform="translate(30 58.675862)scale(0.1 -0.1)">
       <defs>
        <path d="M 1318 1376 
L 1318 3315 
L 4294 3315 
L 4294 3974 
L 1312 3974 
L 1312 4646 
L 5088 4646 
L 5088 2669 
L 2099 2669 
L 2099 2035 
L 5267 2035 
L 5267 1376 
L 3597 1376 
L 3597 570 
L 5939 570 
L 5939 -90 
L 448 -90 
L 448 570 
L 2790 570 
L 2790 1376 
L 1318 1376 
z
" id="D2CodingBold-b85c" transform="scale(0.015625)"/>
       </defs>
       <use xlink:href="#D2CodingBold-ad6c"/>
       <use x="99.999985" xlink:href="#D2CodingBold-b85c"/>
       <use x="199.999969" xlink:href="#D2CodingBold-ad6c"/>
      </g>
     </g>
    </g>
    <g id="ytick_7">
     <g id="line2d_14">
      <g>
       <use style="stroke:#000000;stroke-width:0.8;" x="67" xlink:href="#m8df877fe6f" y="63.7344"/>
      </g>
     </g>
     <g id="text_15">
      <!-- 관악구 -->
      <g transform="translate(30 67.608619)scale(0.1 -0.1)">
       <defs>
        <path d="M 3834 4736 
Q 3821 4166 3773 3603 
Q 3725 3040 3616 2534 
L 2842 2534 
Q 2950 3014 2998 3382 
Q 3046 3750 3053 4077 
L 864 4077 
L 864 4736 
L 3834 4736 
z
M 4410 442 
L 4410 5030 
L 5190 5030 
L 5190 3072 
L 6010 3072 
L 6010 2394 
L 5190 2394 
L 5190 442 
L 4410 442 
z
M 2400 3315 
L 2400 2131 
Q 2867 2150 3340 2185 
Q 3814 2221 4237 2272 
L 4237 1626 
Q 3898 1581 3520 1545 
Q 3142 1510 2748 1488 
Q 2355 1466 1968 1453 
Q 1581 1440 1229 1440 
L 422 1440 
L 422 2106 
L 1222 2106 
Q 1318 2106 1420 2106 
Q 1523 2106 1632 2112 
L 1632 3315 
L 2400 3315 
z
M 5286 -787 
L 1363 -787 
L 1363 864 
L 2163 864 
L 2163 -115 
L 5286 -115 
L 5286 -787 
z
" id="D2CodingBold-ad00" transform="scale(0.015625)"/>
        <path d="M 6010 3053 
L 5120 3053 
L 5120 1581 
L 4333 1581 
L 4333 5030 
L 5120 5030 
L 5120 3712 
L 6010 3712 
L 6010 3053 
z
M 4333 -915 
L 4333 678 
L 1299 678 
L 1299 1331 
L 5120 1331 
L 5120 -915 
L 4333 -915 
z
M 557 3386 
Q 557 3699 672 3974 
Q 787 4250 992 4454 
Q 1197 4659 1478 4777 
Q 1760 4896 2099 4896 
Q 2445 4896 2729 4777 
Q 3014 4659 3219 4454 
Q 3424 4250 3539 3974 
Q 3654 3699 3654 3386 
Q 3654 3066 3539 2794 
Q 3424 2522 3219 2320 
Q 3014 2118 2729 2003 
Q 2445 1888 2099 1888 
Q 1760 1888 1478 2003 
Q 1197 2118 992 2320 
Q 787 2522 672 2797 
Q 557 3072 557 3386 
z
M 1344 3386 
Q 1344 3008 1549 2777 
Q 1754 2547 2099 2547 
Q 2458 2547 2662 2777 
Q 2867 3008 2867 3386 
Q 2867 3763 2662 3996 
Q 2458 4230 2099 4230 
Q 1760 4230 1552 3996 
Q 1344 3763 1344 3386 
z
" id="D2CodingBold-c545" transform="scale(0.015625)"/>
       </defs>
       <use xlink:href="#D2CodingBold-ad00"/>
       <use x="99.999985" xlink:href="#D2CodingBold-c545"/>
       <use x="199.999969" xlink:href="#D2CodingBold-ad6c"/>
      </g>
     </g>
    </g>
    <g id="ytick_8">
     <g id="line2d_15">
      <g>
       <use style="stroke:#000000;stroke-width:0.8;" x="67" xlink:href="#m8df877fe6f" y="72.432"/>
      </g>
     </g>
     <g id="text_16">
      <!-- 은평구 -->
      <g transform="translate(30 76.346844)scale(0.1 -0.1)">
       <defs>
        <path d="M 5158 3776 
Q 5158 3194 4656 2854 
Q 4154 2515 3200 2515 
Q 2240 2515 1737 2857 
Q 1235 3200 1235 3776 
Q 1235 4051 1363 4284 
Q 1491 4518 1740 4688 
Q 1990 4858 2355 4954 
Q 2720 5050 3200 5050 
Q 3674 5050 4038 4954 
Q 4403 4858 4652 4688 
Q 4902 4518 5030 4284 
Q 5158 4051 5158 3776 
z
M 4326 3763 
Q 4326 3898 4265 4016 
Q 4205 4134 4070 4227 
Q 3936 4320 3725 4371 
Q 3514 4422 3206 4422 
Q 2893 4422 2678 4371 
Q 2464 4320 2329 4227 
Q 2195 4134 2134 4016 
Q 2074 3898 2074 3763 
Q 2074 3629 2131 3517 
Q 2189 3405 2323 3321 
Q 2458 3238 2672 3190 
Q 2886 3142 3200 3142 
Q 3507 3142 3721 3190 
Q 3936 3238 4070 3321 
Q 4205 3405 4265 3517 
Q 4326 3629 4326 3763 
z
M 6003 2125 
L 6003 1453 
L 397 1453 
L 397 2125 
L 6003 2125 
z
M 5242 -813 
L 1267 -813 
L 1267 1011 
L 2048 1011 
L 2048 -134 
L 5242 -134 
L 5242 -813 
z
" id="D2CodingBold-c740" transform="scale(0.015625)"/>
        <path d="M 576 4128 
L 576 4768 
L 3994 4768 
L 3994 4128 
L 576 4128 
z
M 1126 2272 
L 1082 3936 
L 1856 3936 
L 1894 2272 
L 2266 2272 
Q 2355 2272 2444 2272 
Q 2534 2272 2624 2278 
L 2662 3936 
L 3437 3936 
L 3392 2330 
Q 3616 2349 3837 2384 
Q 4058 2419 4294 2470 
L 4294 1862 
Q 3840 1747 3325 1705 
Q 2810 1664 2278 1664 
L 454 1664 
L 454 2272 
L 1126 2272 
z
M 3776 3418 
L 3776 3981 
L 4595 3981 
L 4595 5030 
L 5389 5030 
L 5389 1344 
L 4595 1344 
L 4595 2598 
L 3776 2598 
L 3776 3168 
L 4602 3168 
L 4602 3418 
L 3776 3418 
z
M 3443 1350 
Q 3936 1350 4313 1260 
Q 4691 1171 4944 1017 
Q 5197 864 5328 653 
Q 5459 442 5459 198 
Q 5459 -45 5328 -253 
Q 5197 -461 4944 -614 
Q 4691 -768 4313 -857 
Q 3936 -947 3443 -947 
Q 2950 -947 2576 -857 
Q 2202 -768 1949 -614 
Q 1696 -461 1568 -253 
Q 1440 -45 1440 198 
Q 1440 442 1568 653 
Q 1696 864 1949 1017 
Q 2202 1171 2576 1260 
Q 2950 1350 3443 1350 
z
M 3443 730 
Q 3117 730 2886 685 
Q 2656 640 2512 566 
Q 2368 493 2304 397 
Q 2240 301 2240 198 
Q 2240 102 2304 6 
Q 2368 -90 2512 -166 
Q 2656 -243 2886 -288 
Q 3117 -333 3443 -333 
Q 3770 -333 3997 -288 
Q 4224 -243 4368 -166 
Q 4512 -90 4579 6 
Q 4646 102 4646 198 
Q 4646 301 4579 397 
Q 4512 493 4368 566 
Q 4224 640 3997 685 
Q 3770 730 3443 730 
z
" id="D2CodingBold-d3c9" transform="scale(0.015625)"/>
       </defs>
       <use xlink:href="#D2CodingBold-c740"/>
       <use x="99.999985" xlink:href="#D2CodingBold-d3c9"/>
       <use x="199.999969" xlink:href="#D2CodingBold-ad6c"/>
      </g>
     </g>
    </g>
    <g id="ytick_9">
     <g id="line2d_16">
      <g>
       <use style="stroke:#000000;stroke-width:0.8;" x="67" xlink:href="#m8df877fe6f" y="81.1296"/>
      </g>
     </g>
     <g id="text_17">
      <!-- 동대문구 -->
      <g transform="translate(20 85.028819)scale(0.1 -0.1)">
       <defs>
        <path d="M 3200 1280 
Q 4192 1280 4723 982 
Q 5254 685 5254 173 
Q 5254 -339 4723 -643 
Q 4192 -947 3200 -947 
Q 2195 -947 1670 -643 
Q 1146 -339 1146 173 
Q 1146 685 1677 982 
Q 2208 1280 3200 1280 
z
M 3200 678 
Q 2861 678 2630 636 
Q 2400 595 2256 524 
Q 2112 454 2048 361 
Q 1984 269 1984 173 
Q 1984 70 2048 -19 
Q 2112 -109 2256 -179 
Q 2400 -250 2630 -291 
Q 2861 -333 3200 -333 
Q 3539 -333 3769 -291 
Q 4000 -250 4144 -179 
Q 4288 -109 4352 -19 
Q 4416 70 4416 173 
Q 4416 269 4352 361 
Q 4288 454 4144 524 
Q 4000 595 3769 636 
Q 3539 678 3200 678 
z
M 1286 4883 
L 5094 4883 
L 5094 4224 
L 2086 4224 
L 2086 3392 
L 5126 3392 
L 5126 2752 
L 3635 2752 
L 3635 2170 
L 6003 2170 
L 6003 1517 
L 397 1517 
L 397 2170 
L 2829 2170 
L 2829 2752 
L 1286 2752 
L 1286 4883 
z
" id="D2CodingBold-b3d9" transform="scale(0.015625)"/>
        <path d="M 717 595 
L 717 4531 
L 2854 4531 
L 2854 3853 
L 1510 3853 
L 1510 1274 
L 1536 1274 
Q 1958 1274 2387 1338 
Q 2816 1402 3219 1504 
L 3219 845 
Q 2848 736 2336 665 
Q 1824 595 1312 595 
L 717 595 
z
M 5472 -902 
L 4691 -902 
L 4691 2234 
L 4192 2234 
L 4192 -755 
L 3418 -755 
L 3418 4966 
L 4192 4966 
L 4192 2912 
L 4691 2912 
L 4691 5030 
L 5472 5030 
L 5472 -902 
z
" id="D2CodingBold-b300" transform="scale(0.015625)"/>
        <path d="M 4326 3322 
L 4326 4211 
L 2106 4211 
L 2106 3322 
L 4326 3322 
z
M 1312 2682 
L 1312 4870 
L 5126 4870 
L 5126 2682 
L 1312 2682 
z
M 3731 416 
L 2918 416 
L 2918 1530 
L 397 1530 
L 397 2195 
L 6003 2195 
L 6003 1530 
L 3731 1530 
L 3731 416 
z
M 5318 -813 
L 1280 -813 
L 1280 992 
L 2061 992 
L 2061 -141 
L 5318 -141 
L 5318 -813 
z
" id="D2CodingBold-bb38" transform="scale(0.015625)"/>
       </defs>
       <use xlink:href="#D2CodingBold-b3d9"/>
       <use x="99.999985" xlink:href="#D2CodingBold-b300"/>
       <use x="199.999969" xlink:href="#D2CodingBold-bb38"/>
       <use x="299.999954" xlink:href="#D2CodingBold-ad6c"/>
      </g>
     </g>
    </g>
    <g id="ytick_10">
     <g id="line2d_17">
      <g>
       <use style="stroke:#000000;stroke-width:0.8;" x="67" xlink:href="#m8df877fe6f" y="89.8272"/>
      </g>
     </g>
     <g id="text_18">
      <!-- 서초구 -->
      <g transform="translate(30 93.691262)scale(0.1 -0.1)">
       <defs>
        <path d="M 4275 4883 
L 4275 4224 
L 1946 4224 
L 1946 4883 
L 4275 4883 
z
M 5939 -102 
L 448 -102 
L 448 557 
L 2861 557 
L 2861 1536 
L 3661 1536 
L 3661 557 
L 5939 557 
L 5939 -102 
z
M 4026 2579 
Q 4371 2374 4768 2201 
Q 5165 2029 5651 1869 
L 5229 1261 
Q 4717 1459 4281 1673 
Q 3846 1888 3437 2157 
Q 2976 1869 2409 1638 
Q 1843 1408 1178 1229 
L 832 1850 
Q 1466 2022 1942 2195 
Q 2419 2368 2771 2541 
Q 3123 2714 3356 2886 
Q 3590 3059 3744 3232 
Q 3366 3219 3001 3219 
Q 2637 3219 2272 3219 
L 1299 3219 
L 1299 3885 
L 2701 3885 
Q 3264 3885 3824 3885 
Q 4384 3885 4954 3898 
Q 4826 3520 4592 3193 
Q 4358 2867 4026 2579 
z
" id="D2CodingBold-cd08" transform="scale(0.015625)"/>
       </defs>
       <use xlink:href="#D2CodingBold-c11c"/>
       <use x="99.999985" xlink:href="#D2CodingBold-cd08"/>
       <use x="199.999969" xlink:href="#D2CodingBold-ad6c"/>
      </g>
     </g>
    </g>
    <g id="ytick_11">
     <g id="line2d_18">
      <g>
       <use style="stroke:#000000;stroke-width:0.8;" x="67" xlink:href="#m8df877fe6f" y="98.5248"/>
      </g>
     </g>
     <g id="text_19">
      <!-- 금천구 -->
      <g transform="translate(30 102.363863)scale(0.1 -0.1)">
       <defs>
        <path d="M 1197 4838 
L 5114 4838 
Q 5101 4218 5059 3686 
Q 5018 3155 4960 2726 
L 6003 2726 
L 6003 2061 
L 397 2061 
L 397 2726 
L 4154 2726 
Q 4218 3149 4256 3510 
Q 4294 3872 4294 4166 
L 1197 4166 
L 1197 4838 
z
M 1261 -813 
L 1261 1466 
L 5133 1466 
L 5133 -813 
L 1261 -813 
z
M 4346 800 
L 2042 800 
L 2042 -141 
L 4346 -141 
L 4346 800 
z
" id="D2CodingBold-ae08" transform="scale(0.015625)"/>
        <path d="M 3757 2464 
L 3757 3130 
L 4595 3130 
L 4595 5030 
L 5389 5030 
L 5389 486 
L 4595 486 
L 4595 2464 
L 3757 2464 
z
M 5504 -787 
L 1677 -787 
L 1677 781 
L 2477 781 
L 2477 -115 
L 5504 -115 
L 5504 -787 
z
M 1402 4326 
L 1402 4973 
L 3283 4973 
L 3283 4326 
L 1402 4326 
z
M 3002 2547 
Q 3264 2310 3565 2115 
Q 3866 1920 4250 1754 
L 3776 1178 
Q 3430 1344 3126 1558 
Q 2822 1773 2547 2042 
Q 1920 1446 1024 1069 
L 576 1626 
Q 1069 1811 1440 2054 
Q 1811 2298 2067 2544 
Q 2323 2790 2473 3017 
Q 2624 3245 2675 3411 
Q 2387 3398 2099 3398 
Q 1811 3398 1523 3398 
L 922 3398 
L 922 4032 
L 1869 4032 
Q 2310 4032 2752 4032 
Q 3194 4032 3635 4045 
Q 3520 3238 3002 2547 
z
" id="D2CodingBold-cc9c" transform="scale(0.015625)"/>
       </defs>
       <use xlink:href="#D2CodingBold-ae08"/>
       <use x="99.999985" xlink:href="#D2CodingBold-cc9c"/>
       <use x="199.999969" xlink:href="#D2CodingBold-ad6c"/>
      </g>
     </g>
    </g>
    <g id="ytick_12">
     <g id="line2d_19">
      <g>
       <use style="stroke:#000000;stroke-width:0.8;" x="67" xlink:href="#m8df877fe6f" y="107.2224"/>
      </g>
     </g>
     <g id="text_20">
      <!-- 강동구 -->
      <g transform="translate(30 111.121619)scale(0.1 -0.1)">
       <use xlink:href="#D2CodingBold-ac15"/>
       <use x="99.999985" xlink:href="#D2CodingBold-b3d9"/>
       <use x="199.999969" xlink:href="#D2CodingBold-ad6c"/>
      </g>
     </g>
    </g>
    <g id="ytick_13">
     <g id="line2d_20">
      <g>
       <use style="stroke:#000000;stroke-width:0.8;" x="67" xlink:href="#m8df877fe6f" y="115.92"/>
      </g>
     </g>
     <g id="text_21">
      <!-- 성동구 -->
      <g transform="translate(30 119.819219)scale(0.1 -0.1)">
       <defs>
        <path d="M 2810 4883 
Q 2822 4250 2675 3718 
Q 2810 3475 2966 3270 
Q 3123 3066 3308 2893 
Q 3494 2720 3718 2573 
Q 3942 2426 4218 2285 
L 3744 1760 
Q 3290 1984 2944 2272 
Q 2598 2560 2342 2925 
Q 2099 2509 1753 2185 
Q 1408 1862 966 1626 
L 422 2106 
Q 858 2349 1168 2630 
Q 1478 2912 1670 3251 
Q 1862 3590 1939 3993 
Q 2016 4397 1990 4883 
L 2810 4883 
z
M 3488 3174 
L 3488 3827 
L 4595 3827 
L 4595 5030 
L 5389 5030 
L 5389 1478 
L 4595 1478 
L 4595 3174 
L 3488 3174 
z
M 3443 1434 
Q 3942 1434 4316 1341 
Q 4691 1248 4947 1088 
Q 5203 928 5331 707 
Q 5459 486 5459 237 
Q 5459 -13 5331 -227 
Q 5203 -442 4947 -602 
Q 4691 -762 4316 -854 
Q 3942 -947 3443 -947 
Q 2944 -947 2569 -854 
Q 2195 -762 1945 -602 
Q 1696 -442 1568 -227 
Q 1440 -13 1440 237 
Q 1440 486 1568 707 
Q 1696 928 1945 1088 
Q 2195 1248 2569 1341 
Q 2944 1434 3443 1434 
z
M 3443 800 
Q 3117 800 2886 752 
Q 2656 704 2512 627 
Q 2368 550 2304 448 
Q 2240 346 2240 237 
Q 2240 128 2304 29 
Q 2368 -70 2512 -147 
Q 2656 -224 2886 -272 
Q 3117 -320 3443 -320 
Q 3770 -320 4000 -272 
Q 4230 -224 4374 -147 
Q 4518 -70 4585 29 
Q 4653 128 4653 237 
Q 4653 346 4585 448 
Q 4518 550 4374 627 
Q 4230 704 4000 752 
Q 3770 800 3443 800 
z
" id="D2CodingBold-c131" transform="scale(0.015625)"/>
       </defs>
       <use xlink:href="#D2CodingBold-c131"/>
       <use x="99.999985" xlink:href="#D2CodingBold-b3d9"/>
       <use x="199.999969" xlink:href="#D2CodingBold-ad6c"/>
      </g>
     </g>
    </g>
    <g id="ytick_14">
     <g id="line2d_21">
      <g>
       <use style="stroke:#000000;stroke-width:0.8;" x="67" xlink:href="#m8df877fe6f" y="124.6176"/>
      </g>
     </g>
     <g id="text_22">
      <!-- 양천구 -->
      <g transform="translate(30 128.516819)scale(0.1 -0.1)">
       <defs>
        <path d="M 5120 4333 
L 5984 4333 
L 5984 3680 
L 5114 3680 
L 5114 3098 
L 5984 3098 
L 5984 2445 
L 5120 2445 
L 5120 1613 
L 4333 1613 
L 4333 5030 
L 5120 5030 
L 5120 4333 
z
M 570 3392 
Q 570 3706 685 3978 
Q 800 4250 1005 4451 
Q 1210 4653 1491 4771 
Q 1773 4890 2112 4890 
Q 2451 4890 2736 4771 
Q 3021 4653 3222 4451 
Q 3424 4250 3536 3978 
Q 3648 3706 3648 3392 
Q 3648 3078 3536 2806 
Q 3424 2534 3222 2336 
Q 3021 2138 2736 2022 
Q 2451 1907 2112 1907 
Q 1773 1907 1491 2022 
Q 1210 2138 1005 2339 
Q 800 2541 685 2809 
Q 570 3078 570 3392 
z
M 1350 3392 
Q 1350 3014 1558 2787 
Q 1766 2560 2112 2560 
Q 2464 2560 2672 2787 
Q 2880 3014 2880 3392 
Q 2880 3763 2672 3996 
Q 2464 4230 2112 4230 
Q 1773 4230 1561 3996 
Q 1350 3763 1350 3392 
z
M 3251 1587 
Q 3738 1587 4109 1488 
Q 4480 1389 4729 1219 
Q 4979 1050 5107 819 
Q 5235 589 5235 320 
Q 5235 51 5107 -179 
Q 4979 -410 4729 -579 
Q 4480 -749 4109 -848 
Q 3738 -947 3251 -947 
Q 2765 -947 2397 -848 
Q 2029 -749 1779 -579 
Q 1530 -410 1405 -179 
Q 1280 51 1280 320 
Q 1280 589 1405 819 
Q 1530 1050 1779 1219 
Q 2029 1389 2397 1488 
Q 2765 1587 3251 1587 
z
M 3251 941 
Q 2931 941 2710 889 
Q 2490 838 2349 752 
Q 2208 666 2144 554 
Q 2080 442 2080 320 
Q 2080 198 2144 86 
Q 2208 -26 2349 -112 
Q 2490 -198 2710 -249 
Q 2931 -301 3251 -301 
Q 3571 -301 3795 -249 
Q 4019 -198 4163 -112 
Q 4307 -26 4371 86 
Q 4435 198 4435 320 
Q 4435 442 4371 554 
Q 4307 666 4163 752 
Q 4019 838 3795 889 
Q 3571 941 3251 941 
z
" id="D2CodingBold-c591" transform="scale(0.015625)"/>
       </defs>
       <use xlink:href="#D2CodingBold-c591"/>
       <use x="99.999985" xlink:href="#D2CodingBold-cc9c"/>
       <use x="199.999969" xlink:href="#D2CodingBold-ad6c"/>
      </g>
     </g>
    </g>
    <g id="ytick_15">
     <g id="line2d_22">
      <g>
       <use style="stroke:#000000;stroke-width:0.8;" x="67" xlink:href="#m8df877fe6f" y="133.3152"/>
      </g>
     </g>
     <g id="text_23">
      <!-- 광진구 -->
      <g transform="translate(30 137.214419)scale(0.1 -0.1)">
       <defs>
        <path d="M 4410 1344 
L 4410 5030 
L 5190 5030 
L 5190 3520 
L 6010 3520 
L 6010 2861 
L 5190 2861 
L 5190 1344 
L 4410 1344 
z
M 3251 1370 
Q 3744 1370 4121 1280 
Q 4499 1190 4752 1033 
Q 5005 877 5136 665 
Q 5267 454 5267 211 
Q 5267 -32 5148 -243 
Q 5030 -454 4787 -611 
Q 4544 -768 4176 -857 
Q 3808 -947 3315 -947 
Q 2822 -947 2435 -857 
Q 2048 -768 1785 -611 
Q 1523 -454 1385 -243 
Q 1248 -32 1248 211 
Q 1248 454 1376 665 
Q 1504 877 1757 1033 
Q 2010 1190 2384 1280 
Q 2758 1370 3251 1370 
z
M 3251 742 
Q 2925 742 2694 697 
Q 2464 653 2320 579 
Q 2176 506 2112 410 
Q 2048 314 2048 211 
Q 2048 109 2112 9 
Q 2176 -90 2320 -166 
Q 2464 -243 2694 -288 
Q 2925 -333 3251 -333 
Q 3578 -333 3805 -288 
Q 4032 -243 4176 -166 
Q 4320 -90 4387 9 
Q 4454 109 4454 211 
Q 4454 314 4387 410 
Q 4320 506 4176 579 
Q 4032 653 3805 697 
Q 3578 742 3251 742 
z
M 3885 4813 
Q 3878 4557 3859 4281 
Q 3840 4006 3811 3731 
Q 3782 3456 3740 3193 
Q 3699 2931 3648 2707 
L 2874 2707 
Q 2970 3142 3021 3520 
Q 3072 3898 3078 4179 
L 864 4179 
L 864 4813 
L 3885 4813 
z
M 422 2310 
L 1222 2310 
Q 1331 2310 1443 2310 
Q 1555 2310 1670 2317 
L 1670 3546 
L 2438 3546 
L 2438 2336 
Q 2899 2355 3360 2390 
Q 3821 2426 4237 2477 
L 4237 1850 
Q 3898 1805 3520 1769 
Q 3142 1734 2748 1712 
Q 2355 1690 1968 1677 
Q 1581 1664 1229 1664 
L 422 1664 
L 422 2310 
z
" id="D2CodingBold-ad11" transform="scale(0.015625)"/>
        <path d="M 4595 5030 
L 5389 5030 
L 5389 563 
L 4595 563 
L 4595 5030 
z
M 5504 -787 
L 1677 -787 
L 1677 941 
L 2477 941 
L 2477 -115 
L 5504 -115 
L 5504 -787 
z
M 3021 3046 
Q 3290 2739 3616 2499 
Q 3942 2259 4288 2074 
L 3795 1510 
Q 3098 1901 2566 2477 
Q 2221 2106 1792 1821 
Q 1363 1536 883 1312 
L 410 1882 
Q 928 2106 1321 2374 
Q 1715 2643 1993 2924 
Q 2272 3206 2432 3488 
Q 2592 3770 2637 4019 
Q 2438 4006 2108 4006 
Q 1779 4006 1414 4006 
L 864 4006 
L 864 4672 
L 1805 4672 
Q 2208 4672 2633 4672 
Q 3059 4672 3603 4685 
Q 3546 4205 3395 3798 
Q 3245 3392 3021 3046 
z
" id="D2CodingBold-c9c4" transform="scale(0.015625)"/>
       </defs>
       <use xlink:href="#D2CodingBold-ad11"/>
       <use x="99.999985" xlink:href="#D2CodingBold-c9c4"/>
       <use x="199.999969" xlink:href="#D2CodingBold-ad6c"/>
      </g>
     </g>
    </g>
    <g id="ytick_16">
     <g id="line2d_23">
      <g>
       <use style="stroke:#000000;stroke-width:0.8;" x="67" xlink:href="#m8df877fe6f" y="142.0128"/>
      </g>
     </g>
     <g id="text_24">
      <!-- 중구 -->
      <g transform="translate(40 145.792487)scale(0.1 -0.1)">
       <defs>
        <path d="M 3584 1299 
Q 4397 1242 4816 947 
Q 5235 653 5235 192 
Q 5235 -320 4713 -633 
Q 4192 -947 3200 -947 
Q 2195 -947 1680 -633 
Q 1165 -320 1165 192 
Q 1165 646 1577 937 
Q 1990 1229 2778 1293 
L 2778 1811 
L 397 1811 
L 397 2458 
L 6003 2458 
L 6003 1811 
L 3584 1811 
L 3584 1299 
z
M 3200 704 
Q 2861 704 2630 662 
Q 2400 621 2259 547 
Q 2118 474 2057 381 
Q 1997 288 1997 192 
Q 1997 90 2057 -3 
Q 2118 -96 2259 -169 
Q 2400 -243 2630 -288 
Q 2861 -333 3200 -333 
Q 3539 -333 3769 -288 
Q 4000 -243 4141 -169 
Q 4282 -96 4342 -3 
Q 4403 90 4403 192 
Q 4403 288 4342 381 
Q 4282 474 4141 547 
Q 4000 621 3769 662 
Q 3539 704 3200 704 
z
M 1299 4864 
L 3258 4864 
Q 3642 4864 4006 4864 
Q 4371 4864 4787 4877 
Q 4998 4877 4922 4640 
Q 4832 4371 4601 4124 
Q 4371 3878 4026 3654 
Q 4403 3520 4819 3424 
Q 5235 3328 5677 3264 
L 5402 2694 
Q 4851 2797 4345 2941 
Q 3840 3085 3366 3302 
Q 2886 3091 2316 2931 
Q 1747 2771 1114 2682 
L 819 3264 
Q 1453 3347 1949 3468 
Q 2445 3590 2813 3724 
Q 3181 3859 3421 3996 
Q 3661 4134 3782 4256 
L 3782 4262 
Q 3437 4250 3101 4240 
Q 2765 4230 2419 4230 
L 1299 4230 
L 1299 4864 
z
" id="D2CodingBold-c911" transform="scale(0.015625)"/>
       </defs>
       <use xlink:href="#D2CodingBold-c911"/>
       <use x="99.999985" xlink:href="#D2CodingBold-ad6c"/>
      </g>
     </g>
    </g>
    <g id="ytick_17">
     <g id="line2d_24">
      <g>
       <use style="stroke:#000000;stroke-width:0.8;" x="67" xlink:href="#m8df877fe6f" y="150.7104"/>
      </g>
     </g>
     <g id="text_25">
      <!-- 용산구 -->
      <g transform="translate(30 154.625244)scale(0.1 -0.1)">
       <defs>
        <path d="M 3200 1318 
Q 4192 1318 4710 1008 
Q 5229 698 5229 186 
Q 5229 -320 4710 -633 
Q 4192 -947 3200 -947 
Q 2195 -947 1683 -633 
Q 1171 -320 1171 186 
Q 1171 698 1689 1008 
Q 2208 1318 3200 1318 
z
M 3200 691 
Q 2861 691 2630 649 
Q 2400 608 2262 537 
Q 2125 467 2064 374 
Q 2003 282 2003 186 
Q 2003 90 2064 -6 
Q 2125 -102 2262 -172 
Q 2400 -243 2630 -288 
Q 2861 -333 3200 -333 
Q 3539 -333 3769 -288 
Q 4000 -243 4137 -172 
Q 4275 -102 4336 -6 
Q 4397 90 4397 186 
Q 4397 282 4336 374 
Q 4275 467 4137 537 
Q 4000 608 3769 649 
Q 3539 691 3200 691 
z
M 5197 3866 
Q 5197 3597 5053 3385 
Q 4909 3174 4634 3027 
L 4634 2202 
L 6003 2202 
L 6003 1542 
L 397 1542 
L 397 2202 
L 1754 2202 
L 1754 3034 
Q 1203 3341 1203 3866 
Q 1203 4115 1334 4332 
Q 1466 4550 1722 4707 
Q 1978 4864 2349 4957 
Q 2720 5050 3200 5050 
Q 3680 5050 4051 4960 
Q 4422 4870 4678 4710 
Q 4934 4550 5065 4332 
Q 5197 4115 5197 3866 
z
M 3840 2790 
Q 3693 2765 3533 2755 
Q 3373 2746 3200 2746 
Q 3021 2746 2854 2755 
Q 2688 2765 2541 2790 
L 2541 2195 
L 3840 2195 
L 3840 2790 
z
M 4365 3846 
Q 4365 3955 4301 4060 
Q 4237 4166 4096 4246 
Q 3955 4326 3734 4374 
Q 3514 4422 3200 4422 
Q 2880 4422 2656 4374 
Q 2432 4326 2294 4246 
Q 2157 4166 2093 4064 
Q 2029 3962 2029 3846 
Q 2029 3744 2093 3651 
Q 2157 3558 2294 3491 
Q 2432 3424 2656 3382 
Q 2880 3341 3200 3341 
Q 3514 3341 3734 3382 
Q 3955 3424 4096 3491 
Q 4237 3558 4301 3651 
Q 4365 3744 4365 3846 
z
" id="D2CodingBold-c6a9" transform="scale(0.015625)"/>
        <path d="M 832 1421 
L 320 1920 
Q 749 2176 1059 2477 
Q 1370 2778 1562 3136 
Q 1754 3494 1830 3916 
Q 1907 4339 1882 4845 
L 2688 4845 
Q 2694 4531 2662 4243 
Q 2630 3955 2566 3686 
Q 2720 3411 2880 3190 
Q 3040 2970 3229 2784 
Q 3418 2598 3642 2441 
Q 3866 2285 4141 2131 
L 3648 1587 
Q 3206 1830 2857 2150 
Q 2509 2470 2246 2854 
Q 2010 2394 1651 2038 
Q 1293 1683 832 1421 
z
M 6010 2720 
L 5120 2720 
L 5120 685 
L 4333 685 
L 4333 5030 
L 5120 5030 
L 5120 3398 
L 6010 3398 
L 6010 2720 
z
M 5242 -787 
L 1478 -787 
L 1478 1056 
L 2278 1056 
L 2278 -115 
L 5242 -115 
L 5242 -787 
z
" id="D2CodingBold-c0b0" transform="scale(0.015625)"/>
       </defs>
       <use xlink:href="#D2CodingBold-c6a9"/>
       <use x="99.999985" xlink:href="#D2CodingBold-c0b0"/>
       <use x="199.999969" xlink:href="#D2CodingBold-ad6c"/>
      </g>
     </g>
    </g>
    <g id="ytick_18">
     <g id="line2d_25">
      <g>
       <use style="stroke:#000000;stroke-width:0.8;" x="67" xlink:href="#m8df877fe6f" y="159.408"/>
      </g>
     </g>
     <g id="text_26">
      <!-- 서대문구 -->
      <g transform="translate(20 163.272063)scale(0.1 -0.1)">
       <use xlink:href="#D2CodingBold-c11c"/>
       <use x="99.999985" xlink:href="#D2CodingBold-b300"/>
       <use x="199.999969" xlink:href="#D2CodingBold-bb38"/>
       <use x="299.999954" xlink:href="#D2CodingBold-ad6c"/>
      </g>
     </g>
    </g>
    <g id="ytick_19">
     <g id="line2d_26">
      <g>
       <use style="stroke:#000000;stroke-width:0.8;" x="67" xlink:href="#m8df877fe6f" y="168.1056"/>
      </g>
     </g>
     <g id="text_27">
      <!-- 도봉구 -->
      <g transform="translate(30 171.950131)scale(0.1 -0.1)">
       <defs>
        <path d="M 1280 1664 
L 1280 4550 
L 5114 4550 
L 5114 3872 
L 2080 3872 
L 2080 2336 
L 5165 2336 
L 5165 1664 
L 3635 1664 
L 3635 589 
L 5971 589 
L 5971 -70 
L 416 -70 
L 416 589 
L 2829 589 
L 2829 1664 
L 1280 1664 
z
" id="D2CodingBold-b3c4" transform="scale(0.015625)"/>
        <path d="M 3200 1267 
Q 4198 1267 4716 963 
Q 5235 659 5235 166 
Q 5235 -77 5104 -281 
Q 4973 -486 4713 -633 
Q 4454 -781 4076 -864 
Q 3699 -947 3200 -947 
Q 2701 -947 2320 -864 
Q 1939 -781 1683 -633 
Q 1427 -486 1296 -281 
Q 1165 -77 1165 166 
Q 1165 659 1683 963 
Q 2202 1267 3200 1267 
z
M 3200 646 
Q 2861 646 2630 608 
Q 2400 570 2259 502 
Q 2118 435 2057 348 
Q 1997 262 1997 166 
Q 1997 70 2057 -16 
Q 2118 -102 2259 -172 
Q 2400 -243 2630 -284 
Q 2861 -326 3200 -326 
Q 3539 -326 3769 -284 
Q 4000 -243 4141 -172 
Q 4282 -102 4342 -16 
Q 4403 70 4403 166 
Q 4403 262 4342 348 
Q 4282 435 4141 502 
Q 4000 570 3769 608 
Q 3539 646 3200 646 
z
M 3584 2618 
L 3584 2112 
L 6003 2112 
L 6003 1459 
L 397 1459 
L 397 2112 
L 2784 2112 
L 2784 2618 
L 1280 2618 
L 1280 4960 
L 2086 4960 
L 2086 4294 
L 4307 4294 
L 4307 4960 
L 5107 4960 
L 5107 2618 
L 3584 2618 
z
M 4314 3699 
L 2067 3699 
L 2067 3226 
L 4314 3226 
L 4314 3699 
z
" id="D2CodingBold-bd09" transform="scale(0.015625)"/>
       </defs>
       <use xlink:href="#D2CodingBold-b3c4"/>
       <use x="99.999985" xlink:href="#D2CodingBold-bd09"/>
       <use x="199.999969" xlink:href="#D2CodingBold-ad6c"/>
      </g>
     </g>
    </g>
    <g id="ytick_20">
     <g id="line2d_27">
      <g>
       <use style="stroke:#000000;stroke-width:0.8;" x="67" xlink:href="#m8df877fe6f" y="176.8032"/>
      </g>
     </g>
     <g id="text_28">
      <!-- 종로구 -->
      <g transform="translate(30 180.582887)scale(0.1 -0.1)">
       <defs>
        <path d="M 3213 1306 
Q 4205 1306 4726 1002 
Q 5248 698 5248 192 
Q 5248 -58 5117 -266 
Q 4986 -474 4726 -627 
Q 4467 -781 4086 -864 
Q 3706 -947 3213 -947 
Q 2714 -947 2333 -864 
Q 1952 -781 1696 -627 
Q 1440 -474 1309 -266 
Q 1178 -58 1178 192 
Q 1178 698 1699 1002 
Q 2221 1306 3213 1306 
z
M 3213 691 
Q 2874 691 2643 649 
Q 2413 608 2272 537 
Q 2131 467 2070 377 
Q 2010 288 2010 192 
Q 2010 96 2070 3 
Q 2131 -90 2272 -163 
Q 2413 -237 2643 -278 
Q 2874 -320 3213 -320 
Q 3552 -320 3782 -278 
Q 4013 -237 4153 -163 
Q 4294 -90 4355 3 
Q 4416 96 4416 192 
Q 4416 288 4355 377 
Q 4294 467 4153 537 
Q 4013 608 3782 649 
Q 3552 691 3213 691 
z
M 3654 2861 
L 3654 2227 
L 6003 2227 
L 6003 1587 
L 397 1587 
L 397 2227 
L 2880 2227 
L 2880 2861 
L 3654 2861 
z
M 1299 4864 
L 3245 4864 
Q 3629 4864 3993 4864 
Q 4358 4864 4774 4877 
Q 4998 4877 4909 4640 
Q 4813 4371 4582 4121 
Q 4352 3872 4013 3648 
Q 4397 3501 4806 3385 
Q 5216 3270 5677 3174 
L 5382 2618 
Q 4845 2746 4345 2915 
Q 3846 3085 3386 3302 
Q 2912 3078 2339 2902 
Q 1766 2726 1120 2605 
L 819 3181 
Q 1427 3277 1920 3411 
Q 2413 3546 2781 3690 
Q 3149 3834 3401 3984 
Q 3654 4134 3782 4269 
L 3782 4275 
Q 3437 4262 3101 4252 
Q 2765 4243 2419 4243 
L 1299 4243 
L 1299 4864 
z
" id="D2CodingBold-c885" transform="scale(0.015625)"/>
       </defs>
       <use xlink:href="#D2CodingBold-c885"/>
       <use x="99.999985" xlink:href="#D2CodingBold-b85c"/>
       <use x="199.999969" xlink:href="#D2CodingBold-ad6c"/>
      </g>
     </g>
    </g>
    <g id="ytick_21">
     <g id="line2d_28">
      <g>
       <use style="stroke:#000000;stroke-width:0.8;" x="67" xlink:href="#m8df877fe6f" y="185.5008"/>
      </g>
     </g>
     <g id="text_29">
      <!-- 중랑구 -->
      <g transform="translate(30 189.400019)scale(0.1 -0.1)">
       <defs>
        <path d="M 6010 3046 
L 5120 3046 
L 5120 1370 
L 4333 1370 
L 4333 5030 
L 5120 5030 
L 5120 3706 
L 6010 3706 
L 6010 3046 
z
M 3251 1331 
Q 3738 1331 4109 1241 
Q 4480 1152 4729 998 
Q 4979 845 5107 637 
Q 5235 429 5235 192 
Q 5235 -51 5107 -259 
Q 4979 -467 4729 -620 
Q 4480 -774 4109 -860 
Q 3738 -947 3251 -947 
Q 2765 -947 2397 -860 
Q 2029 -774 1779 -620 
Q 1530 -467 1405 -259 
Q 1280 -51 1280 192 
Q 1280 429 1405 637 
Q 1530 845 1779 998 
Q 2029 1152 2397 1241 
Q 2765 1331 3251 1331 
z
M 3251 710 
Q 2931 710 2707 665 
Q 2483 621 2342 547 
Q 2202 474 2141 381 
Q 2080 288 2080 192 
Q 2080 96 2141 0 
Q 2202 -96 2342 -173 
Q 2483 -250 2707 -294 
Q 2931 -339 3251 -339 
Q 3571 -339 3795 -294 
Q 4019 -250 4160 -173 
Q 4301 -96 4365 0 
Q 4429 96 4429 192 
Q 4429 288 4365 381 
Q 4301 474 4160 547 
Q 4019 621 3795 665 
Q 3571 710 3251 710 
z
M 1485 2298 
L 1939 2298 
Q 2592 2298 3120 2368 
Q 3648 2438 4166 2554 
L 4166 1914 
Q 3136 1658 1741 1658 
L 698 1658 
L 698 3552 
L 2566 3552 
L 2566 4192 
L 691 4192 
L 691 4819 
L 3354 4819 
L 3354 2950 
L 1485 2950 
L 1485 2298 
z
" id="D2CodingBold-b791" transform="scale(0.015625)"/>
       </defs>
       <use xlink:href="#D2CodingBold-c911"/>
       <use x="99.999985" xlink:href="#D2CodingBold-b791"/>
       <use x="199.999969" xlink:href="#D2CodingBold-ad6c"/>
      </g>
     </g>
    </g>
    <g id="ytick_22">
     <g id="line2d_29">
      <g>
       <use style="stroke:#000000;stroke-width:0.8;" x="67" xlink:href="#m8df877fe6f" y="194.1984"/>
      </g>
     </g>
     <g id="text_30">
      <!-- 동작구 -->
      <g transform="translate(30 198.097619)scale(0.1 -0.1)">
       <defs>
        <path d="M 6010 2995 
L 5120 2995 
L 5120 1536 
L 4333 1536 
L 4333 5030 
L 5120 5030 
L 5120 3661 
L 6010 3661 
L 6010 2995 
z
M 4333 -922 
L 4333 627 
L 1299 627 
L 1299 1280 
L 5120 1280 
L 5120 -922 
L 4333 -922 
z
M 762 4768 
L 1734 4768 
Q 2163 4768 2595 4768 
Q 3027 4768 3462 4781 
Q 3411 4301 3270 3907 
Q 3130 3514 2906 3174 
Q 3181 2867 3529 2617 
Q 3878 2368 4224 2214 
L 3763 1651 
Q 3405 1830 3088 2083 
Q 2771 2336 2490 2662 
Q 2163 2317 1747 2045 
Q 1331 1773 851 1536 
L 358 2099 
Q 851 2310 1238 2566 
Q 1626 2822 1898 3091 
Q 2170 3360 2330 3622 
Q 2490 3885 2528 4115 
Q 2259 4102 1996 4102 
Q 1734 4102 1466 4102 
L 762 4102 
L 762 4768 
z
" id="D2CodingBold-c791" transform="scale(0.015625)"/>
       </defs>
       <use xlink:href="#D2CodingBold-b3d9"/>
       <use x="99.999985" xlink:href="#D2CodingBold-c791"/>
       <use x="199.999969" xlink:href="#D2CodingBold-ad6c"/>
      </g>
     </g>
    </g>
    <g id="ytick_23">
     <g id="line2d_30">
      <g>
       <use style="stroke:#000000;stroke-width:0.8;" x="67" xlink:href="#m8df877fe6f" y="202.896"/>
      </g>
     </g>
     <g id="text_31">
      <!-- 노원구 -->
      <g transform="translate(30 206.735062)scale(0.1 -0.1)">
       <defs>
        <path d="M 1408 1818 
L 1408 4653 
L 2208 4653 
L 2208 2483 
L 5216 2483 
L 5216 1818 
L 3693 1818 
L 3693 614 
L 5939 614 
L 5939 -45 
L 448 -45 
L 448 614 
L 2893 614 
L 2893 1818 
L 1408 1818 
z
" id="D2CodingBold-b178" transform="scale(0.015625)"/>
        <path d="M 4742 346 
L 4742 877 
L 3546 877 
L 3546 1478 
L 4742 1478 
L 4742 5030 
L 5530 5030 
L 5530 346 
L 4742 346 
z
M 582 2336 
L 1504 2336 
Q 1837 2336 2214 2345 
Q 2592 2355 2985 2377 
Q 3379 2400 3769 2432 
Q 4160 2464 4512 2509 
L 4512 1888 
Q 4166 1837 3779 1801 
Q 3392 1766 2989 1741 
L 2989 762 
L 2221 762 
L 2221 1709 
Q 2035 1702 1859 1699 
Q 1683 1696 1517 1696 
L 582 1696 
L 582 2336 
z
M 5626 -787 
L 1498 -787 
L 1498 634 
L 2266 634 
L 2266 -122 
L 5626 -122 
L 5626 -787 
z
M 4134 3770 
Q 4134 3507 4025 3289 
Q 3917 3072 3718 2912 
Q 3520 2752 3241 2665 
Q 2963 2579 2618 2579 
Q 2272 2579 1990 2665 
Q 1709 2752 1513 2912 
Q 1318 3072 1212 3289 
Q 1107 3507 1107 3770 
Q 1107 4032 1212 4249 
Q 1318 4467 1513 4627 
Q 1709 4787 1990 4873 
Q 2272 4960 2618 4960 
Q 2963 4960 3241 4873 
Q 3520 4787 3718 4627 
Q 3917 4467 4025 4249 
Q 4134 4032 4134 3770 
z
M 3341 3770 
Q 3341 3872 3305 3977 
Q 3270 4083 3190 4166 
Q 3110 4250 2969 4301 
Q 2829 4352 2618 4352 
Q 2406 4352 2268 4301 
Q 2131 4250 2051 4166 
Q 1971 4083 1939 3977 
Q 1907 3872 1907 3770 
Q 1907 3667 1939 3561 
Q 1971 3456 2051 3373 
Q 2131 3290 2268 3238 
Q 2406 3187 2618 3187 
Q 2829 3187 2969 3238 
Q 3110 3290 3190 3373 
Q 3270 3456 3305 3561 
Q 3341 3667 3341 3770 
z
" id="D2CodingBold-c6d0" transform="scale(0.015625)"/>
       </defs>
       <use xlink:href="#D2CodingBold-b178"/>
       <use x="99.999985" xlink:href="#D2CodingBold-c6d0"/>
       <use x="199.999969" xlink:href="#D2CodingBold-ad6c"/>
      </g>
     </g>
    </g>
    <g id="ytick_24">
     <g id="line2d_31">
      <g>
       <use style="stroke:#000000;stroke-width:0.8;" x="67" xlink:href="#m8df877fe6f" y="211.5936"/>
      </g>
     </g>
     <g id="text_32">
      <!-- 성북구 -->
      <g transform="translate(30 215.492819)scale(0.1 -0.1)">
       <defs>
        <path d="M 2784 986 
L 2784 1581 
L 397 1581 
L 397 2246 
L 6003 2246 
L 6003 1581 
L 3584 1581 
L 3584 986 
L 5133 986 
L 5133 -915 
L 4346 -915 
L 4346 320 
L 1165 320 
L 1165 986 
L 2784 986 
z
M 4314 3744 
L 2067 3744 
L 2067 3251 
L 4314 3251 
L 4314 3744 
z
M 1280 2643 
L 1280 4960 
L 2086 4960 
L 2086 4352 
L 4307 4352 
L 4307 4960 
L 5107 4960 
L 5107 2643 
L 1280 2643 
z
" id="D2CodingBold-bd81" transform="scale(0.015625)"/>
       </defs>
       <use xlink:href="#D2CodingBold-c131"/>
       <use x="99.999985" xlink:href="#D2CodingBold-bd81"/>
       <use x="199.999969" xlink:href="#D2CodingBold-ad6c"/>
      </g>
     </g>
    </g>
    <g id="ytick_25">
     <g id="line2d_32">
      <g>
       <use style="stroke:#000000;stroke-width:0.8;" x="67" xlink:href="#m8df877fe6f" y="220.2912"/>
      </g>
     </g>
     <g id="text_33">
      <!-- 강북구 -->
      <g transform="translate(30 224.190419)scale(0.1 -0.1)">
       <use xlink:href="#D2CodingBold-ac15"/>
       <use x="99.999985" xlink:href="#D2CodingBold-bd81"/>
       <use x="199.999969" xlink:href="#D2CodingBold-ad6c"/>
      </g>
     </g>
    </g>
    <g id="text_34">
     <!-- district -->
     <g transform="translate(14.459375 135.92)rotate(-90)scale(0.1 -0.1)">
      <defs>
       <path d="M 2125 2022 
Q 2125 2176 2096 2329 
Q 2067 2483 2000 2604 
Q 1933 2726 1821 2800 
Q 1709 2874 1536 2874 
Q 1267 2874 1107 2602 
Q 947 2330 947 1728 
Q 947 1094 1088 844 
Q 1229 595 1530 595 
Q 1651 595 1760 652 
Q 1869 710 1949 819 
Q 2029 928 2077 1081 
Q 2125 1235 2125 1421 
L 2125 2022 
z
M 1395 3430 
Q 1594 3430 1792 3315 
Q 1990 3200 2125 2963 
L 2125 4646 
L 2816 4646 
L 2816 102 
L 2182 102 
L 2138 518 
Q 2035 262 1827 140 
Q 1619 19 1440 19 
Q 1075 19 844 160 
Q 614 301 483 541 
Q 352 781 301 1091 
Q 250 1402 250 1747 
Q 250 2048 304 2349 
Q 358 2650 489 2890 
Q 621 3130 841 3280 
Q 1062 3430 1395 3430 
z
" id="D2CodingBold-64" transform="scale(0.015625)"/>
       <path d="M 2016 3366 
L 2016 666 
L 2886 666 
L 2886 102 
L 371 102 
L 371 666 
L 1312 666 
L 1312 2797 
L 582 2797 
L 582 3366 
L 2016 3366 
z
M 1107 4493 
Q 1107 4704 1254 4851 
Q 1402 4998 1606 4998 
Q 1811 4998 1958 4851 
Q 2106 4704 2106 4493 
Q 2106 4282 1958 4134 
Q 1811 3987 1606 3987 
Q 1402 3987 1254 4134 
Q 1107 4282 1107 4493 
z
" id="D2CodingBold-69" transform="scale(0.015625)"/>
       <path d="M 435 966 
Q 570 883 720 816 
Q 870 749 1014 704 
Q 1158 659 1289 633 
Q 1421 608 1517 608 
Q 1786 608 1968 697 
Q 2150 787 2150 992 
Q 2150 1101 1964 1241 
Q 1779 1382 1338 1568 
Q 902 1754 678 1984 
Q 454 2214 454 2560 
Q 454 2989 761 3219 
Q 1069 3450 1626 3450 
Q 1875 3450 2137 3389 
Q 2400 3328 2643 3200 
L 2643 2630 
L 2566 2630 
Q 2483 2682 2358 2730 
Q 2234 2778 2099 2813 
Q 1965 2848 1833 2867 
Q 1702 2886 1606 2886 
Q 1408 2886 1289 2809 
Q 1171 2733 1171 2586 
Q 1171 2496 1216 2425 
Q 1261 2355 1353 2291 
Q 1446 2227 1593 2156 
Q 1741 2086 1946 2003 
Q 2118 1933 2284 1843 
Q 2451 1754 2585 1635 
Q 2720 1517 2803 1360 
Q 2886 1203 2886 998 
Q 2886 736 2777 550 
Q 2669 365 2483 249 
Q 2298 134 2058 80 
Q 1818 26 1549 26 
Q 1254 26 950 96 
Q 646 166 358 346 
L 358 966 
L 435 966 
z
" id="D2CodingBold-73" transform="scale(0.015625)"/>
       <path d="M 1242 3366 
L 1267 2797 
Q 1382 3072 1641 3254 
Q 1901 3437 2221 3437 
Q 2432 3437 2633 3385 
Q 2835 3334 3021 3206 
L 3021 2579 
L 2938 2579 
Q 2867 2624 2771 2665 
Q 2675 2707 2566 2739 
Q 2458 2771 2352 2793 
Q 2246 2816 2157 2816 
Q 1958 2816 1804 2726 
Q 1651 2637 1542 2483 
Q 1434 2330 1376 2131 
Q 1318 1933 1318 1722 
L 1318 102 
L 621 102 
L 621 3366 
L 1242 3366 
z
" id="D2CodingBold-72" transform="scale(0.015625)"/>
      </defs>
      <use xlink:href="#D2CodingBold-64"/>
      <use x="49.999985" xlink:href="#D2CodingBold-69"/>
      <use x="99.999969" xlink:href="#D2CodingBold-73"/>
      <use x="149.999954" xlink:href="#D2CodingBold-74"/>
      <use x="199.999939" xlink:href="#D2CodingBold-72"/>
      <use x="249.999924" xlink:href="#D2CodingBold-69"/>
      <use x="299.999908" xlink:href="#D2CodingBold-63"/>
      <use x="349.999893" xlink:href="#D2CodingBold-74"/>
     </g>
    </g>
   </g>
   <g id="patch_28">
    <path d="M 67 224.64 
L 67 7.2 
" style="fill:none;stroke:#000000;stroke-linecap:square;stroke-linejoin:miter;stroke-width:0.8;"/>
   </g>
   <g id="patch_29">
    <path d="M 401.8 224.64 
L 401.8 7.2 
" style="fill:none;stroke:#000000;stroke-linecap:square;stroke-linejoin:miter;stroke-width:0.8;"/>
   </g>
   <g id="patch_30">
    <path d="M 67 224.64 
L 401.8 224.64 
" style="fill:none;stroke:#000000;stroke-linecap:square;stroke-linejoin:miter;stroke-width:0.8;"/>
   </g>
   <g id="patch_31">
    <path d="M 67 7.2 
L 401.8 7.2 
" style="fill:none;stroke:#000000;stroke-linecap:square;stroke-linejoin:miter;stroke-width:0.8;"/>
   </g>
  </g>
 </g>
 <defs>
  <clipPath id="p9f5a5aec5e">
   <rect height="217.44" width="334.8" x="67" y="7.2"/>
  </clipPath>
 </defs>
</svg>
