<?xml version="1.0" encoding="utf-8" standalone="no"?>
<!DOCTYPE svg PUBLIC "-//W3C//DTD SVG 1.1//EN"
  "http://www.w3.org/Graphics/SVG/1.1/DTD/svg11.dtd">
<svg height="275.919063pt" version="1.1" viewBox="0 0 420.16 275.919063" width="420.16pt" xmlns="http://www.w3.org/2000/svg" xmlns:xlink="http://www.w3.org/1999/xlink">
 <metadata>
  <rdf:RDF xmlns:cc="http://creativecommons.org/ns#" xmlns:dc="http://purl.org/dc/elements/1.1/" xmlns:rdf="http://www.w3.org/1999/02/22-rdf-syntax-ns#">
   <cc:Work>
    <dc:type rdf:resource="http://purl.org/dc/dcmitype/StillImage"/>
    <dc:date>2021-05-20T01:46:27.122122</dc:date>
    <dc:format>image/svg+xml</dc:format>
    <dc:creator>
     <cc:Agent>
      <dc:title>Matplotlib v3.4.1, https://matplotlib.org/</dc:title>
     </cc:Agent>
    </dc:creator>
   </cc:Work>
  </rdf:RDF>
 </metadata>
 <defs>
  <style type="text/css">*{stroke-linecap:butt;stroke-linejoin:round;}</style>
 </defs>
 <g id="figure_1">
  <g id="patch_1">
   <path d="M 0 275.919063 
L 420.16 275.919063 
L 420.16 0 
L 0 0 
z
" style="fill:none;"/>
  </g>
  <g id="axes_1">
   <g id="patch_2">
    <path d="M 55.56 240.08 
L 412.96 240.08 
L 412.96 22.68 
L 55.56 22.68 
z
" style="fill:#ffffff;"/>
   </g>
   <g id="matplotlib.axis_1">
    <g id="xtick_1">
     <g id="line2d_1">
      <path clip-path="url(#p79f80d7237)" d="M 71.805455 240.08 
L 71.805455 22.68 
" style="fill:none;stroke:#b0b0b0;stroke-linecap:square;stroke-width:0.8;"/>
     </g>
     <g id="line2d_2">
      <defs>
       <path d="M 0 0 
L 0 3.5 
" id="m1c91dd96a2" style="stroke:#000000;stroke-width:0.8;"/>
      </defs>
      <g>
       <use style="stroke:#000000;stroke-width:0.8;" x="71.805455" xlink:href="#m1c91dd96a2" y="240.08"/>
      </g>
     </g>
     <g id="text_1">
      <!-- 1 -->
      <g transform="translate(69.305455 254.339375)scale(0.1 -0.1)">
       <defs>
        <path d="M 646 102 
L 646 698 
L 1472 698 
Q 1472 1472 1469 2179 
Q 1466 2886 1466 3661 
Q 1376 3603 1257 3539 
Q 1139 3475 1014 3414 
Q 890 3354 771 3299 
Q 653 3245 570 3206 
L 474 3206 
L 474 3814 
Q 774 3949 1062 4115 
Q 1350 4282 1510 4442 
L 2170 4442 
L 2170 698 
L 2950 698 
L 2950 102 
L 646 102 
z
" id="D2CodingBold-31" transform="scale(0.015625)"/>
       </defs>
       <use xlink:href="#D2CodingBold-31"/>
      </g>
     </g>
    </g>
    <g id="xtick_2">
     <g id="line2d_3">
      <path clip-path="url(#p79f80d7237)" d="M 82.635758 240.08 
L 82.635758 22.68 
" style="fill:none;stroke:#b0b0b0;stroke-linecap:square;stroke-width:0.8;"/>
     </g>
     <g id="line2d_4">
      <g>
       <use style="stroke:#000000;stroke-width:0.8;" x="82.635758" xlink:href="#m1c91dd96a2" y="240.08"/>
      </g>
     </g>
     <g id="text_2">
      <!-- 2 -->
      <g transform="translate(80.135758 254.339375)scale(0.1 -0.1)">
       <defs>
        <path d="M 339 3590 
L 339 4160 
Q 563 4314 864 4426 
Q 1165 4538 1491 4538 
Q 2093 4538 2461 4246 
Q 2829 3955 2829 3366 
Q 2829 3130 2771 2925 
Q 2714 2720 2614 2531 
Q 2515 2342 2384 2160 
Q 2253 1978 2099 1792 
L 1222 685 
L 2867 685 
L 2867 102 
L 333 102 
L 333 640 
L 1498 2086 
Q 1638 2259 1750 2412 
Q 1862 2566 1942 2720 
Q 2022 2874 2064 3034 
Q 2106 3194 2106 3379 
Q 2106 3674 1939 3811 
Q 1773 3949 1491 3949 
Q 1299 3949 1001 3869 
Q 704 3789 410 3590 
L 339 3590 
z
" id="D2CodingBold-32" transform="scale(0.015625)"/>
       </defs>
       <use xlink:href="#D2CodingBold-32"/>
      </g>
     </g>
    </g>
    <g id="xtick_3">
     <g id="line2d_5">
      <path clip-path="url(#p79f80d7237)" d="M 93.466061 240.08 
L 93.466061 22.68 
" style="fill:none;stroke:#b0b0b0;stroke-linecap:square;stroke-width:0.8;"/>
     </g>
     <g id="line2d_6">
      <g>
       <use style="stroke:#000000;stroke-width:0.8;" x="93.466061" xlink:href="#m1c91dd96a2" y="240.08"/>
      </g>
     </g>
     <g id="text_3">
      <!-- 3 -->
      <g transform="translate(90.966061 254.339375)scale(0.1 -0.1)">
       <defs>
        <path d="M 1446 26 
Q 1082 26 790 99 
Q 499 173 250 301 
L 250 896 
L 326 896 
Q 448 826 592 771 
Q 736 717 886 681 
Q 1037 646 1181 630 
Q 1325 614 1446 614 
Q 1606 614 1747 668 
Q 1888 723 1990 812 
Q 2093 902 2150 1027 
Q 2208 1152 2208 1299 
Q 2208 2074 1389 2074 
L 973 2074 
L 973 2618 
L 1338 2618 
Q 1504 2624 1645 2662 
Q 1786 2701 1891 2784 
Q 1997 2867 2054 2998 
Q 2112 3130 2112 3328 
Q 2112 3488 2061 3603 
Q 2010 3718 1923 3795 
Q 1837 3872 1728 3907 
Q 1619 3942 1498 3942 
Q 1402 3942 1274 3926 
Q 1146 3910 1008 3878 
Q 870 3846 736 3798 
Q 602 3750 499 3686 
L 422 3686 
L 422 4230 
Q 883 4525 1472 4525 
Q 1741 4525 1990 4461 
Q 2240 4397 2429 4256 
Q 2618 4115 2730 3891 
Q 2842 3667 2842 3354 
Q 2842 3014 2662 2758 
Q 2483 2502 2227 2368 
Q 2515 2240 2723 1984 
Q 2931 1728 2931 1318 
Q 2931 1005 2819 765 
Q 2707 525 2508 361 
Q 2310 198 2038 112 
Q 1766 26 1446 26 
z
" id="D2CodingBold-33" transform="scale(0.015625)"/>
       </defs>
       <use xlink:href="#D2CodingBold-33"/>
      </g>
     </g>
    </g>
    <g id="xtick_4">
     <g id="line2d_7">
      <path clip-path="url(#p79f80d7237)" d="M 104.296364 240.08 
L 104.296364 22.68 
" style="fill:none;stroke:#b0b0b0;stroke-linecap:square;stroke-width:0.8;"/>
     </g>
     <g id="line2d_8">
      <g>
       <use style="stroke:#000000;stroke-width:0.8;" x="104.296364" xlink:href="#m1c91dd96a2" y="240.08"/>
      </g>
     </g>
     <g id="text_4">
      <!-- 4 -->
      <g transform="translate(101.796364 254.339375)scale(0.1 -0.1)">
       <defs>
        <path d="M 1792 4442 
L 2547 4442 
L 2547 1670 
L 3130 1670 
L 3130 1101 
L 2547 1101 
L 2547 102 
L 1843 102 
L 1843 1101 
L 154 1101 
L 154 1664 
L 1792 4442 
z
M 1914 3642 
L 1773 3258 
L 877 1658 
L 1862 1658 
L 1862 3232 
L 1914 3642 
z
" id="D2CodingBold-34" transform="scale(0.015625)"/>
       </defs>
       <use xlink:href="#D2CodingBold-34"/>
      </g>
     </g>
    </g>
    <g id="xtick_5">
     <g id="line2d_9">
      <path clip-path="url(#p79f80d7237)" d="M 115.126667 240.08 
L 115.126667 22.68 
" style="fill:none;stroke:#b0b0b0;stroke-linecap:square;stroke-width:0.8;"/>
     </g>
     <g id="line2d_10">
      <g>
       <use style="stroke:#000000;stroke-width:0.8;" x="115.126667" xlink:href="#m1c91dd96a2" y="240.08"/>
      </g>
     </g>
     <g id="text_5">
      <!-- 5 -->
      <g transform="translate(112.626667 254.339375)scale(0.1 -0.1)">
       <defs>
        <path d="M 314 877 
Q 435 800 579 745 
Q 723 691 873 656 
Q 1024 621 1168 605 
Q 1312 589 1427 595 
Q 1600 602 1737 678 
Q 1875 755 1971 880 
Q 2067 1005 2118 1161 
Q 2170 1318 2170 1491 
Q 2170 1920 1958 2125 
Q 1747 2330 1350 2330 
Q 1222 2330 1059 2301 
Q 896 2272 710 2240 
Q 672 2234 579 2221 
Q 486 2208 454 2202 
L 602 4442 
L 2682 4442 
L 2682 3872 
L 1222 3872 
Q 1203 3597 1177 3353 
Q 1152 3110 1139 2829 
Q 1222 2842 1324 2854 
Q 1427 2867 1530 2867 
Q 2182 2867 2534 2502 
Q 2886 2138 2886 1542 
Q 2886 1222 2784 947 
Q 2682 672 2490 470 
Q 2298 269 2029 150 
Q 1760 32 1427 32 
Q 1235 32 1075 51 
Q 915 70 774 105 
Q 634 141 506 195 
Q 378 250 243 320 
L 243 877 
L 314 877 
z
" id="D2CodingBold-35" transform="scale(0.015625)"/>
       </defs>
       <use xlink:href="#D2CodingBold-35"/>
      </g>
     </g>
    </g>
    <g id="xtick_6">
     <g id="line2d_11">
      <path clip-path="url(#p79f80d7237)" d="M 125.95697 240.08 
L 125.95697 22.68 
" style="fill:none;stroke:#b0b0b0;stroke-linecap:square;stroke-width:0.8;"/>
     </g>
     <g id="line2d_12">
      <g>
       <use style="stroke:#000000;stroke-width:0.8;" x="125.95697" xlink:href="#m1c91dd96a2" y="240.08"/>
      </g>
     </g>
     <g id="text_6">
      <!-- 6 -->
      <g transform="translate(123.45697 254.339375)scale(0.1 -0.1)">
       <defs>
        <path d="M 2675 3757 
Q 2605 3802 2512 3837 
Q 2419 3872 2316 3897 
Q 2214 3923 2112 3936 
Q 2010 3949 1926 3949 
Q 1715 3949 1545 3833 
Q 1376 3718 1254 3526 
Q 1133 3334 1065 3084 
Q 998 2835 998 2566 
Q 1107 2758 1318 2886 
Q 1530 3014 1734 3014 
Q 2048 3014 2278 2905 
Q 2509 2797 2659 2605 
Q 2810 2413 2883 2150 
Q 2957 1888 2957 1581 
Q 2957 1254 2873 969 
Q 2790 685 2624 477 
Q 2458 269 2208 147 
Q 1958 26 1632 26 
Q 1197 26 931 227 
Q 666 429 525 736 
Q 384 1043 339 1408 
Q 294 1773 294 2099 
Q 294 2349 320 2624 
Q 346 2899 413 3168 
Q 480 3437 595 3680 
Q 710 3923 883 4112 
Q 1056 4301 1293 4409 
Q 1530 4518 1850 4518 
Q 2093 4518 2310 4467 
Q 2528 4416 2739 4326 
L 2739 3757 
L 2675 3757 
z
M 1030 1536 
Q 1030 1382 1062 1212 
Q 1094 1043 1168 902 
Q 1242 762 1354 669 
Q 1466 576 1632 576 
Q 1798 576 1916 669 
Q 2035 762 2112 906 
Q 2189 1050 2224 1222 
Q 2259 1395 2259 1549 
Q 2259 1702 2227 1865 
Q 2195 2029 2124 2163 
Q 2054 2298 1942 2384 
Q 1830 2470 1664 2470 
Q 1491 2470 1372 2384 
Q 1254 2298 1180 2163 
Q 1107 2029 1072 1862 
Q 1037 1696 1030 1536 
z
" id="D2CodingBold-36" transform="scale(0.015625)"/>
       </defs>
       <use xlink:href="#D2CodingBold-36"/>
      </g>
     </g>
    </g>
    <g id="xtick_7">
     <g id="line2d_13">
      <path clip-path="url(#p79f80d7237)" d="M 136.787273 240.08 
L 136.787273 22.68 
" style="fill:none;stroke:#b0b0b0;stroke-linecap:square;stroke-width:0.8;"/>
     </g>
     <g id="line2d_14">
      <g>
       <use style="stroke:#000000;stroke-width:0.8;" x="136.787273" xlink:href="#m1c91dd96a2" y="240.08"/>
      </g>
     </g>
     <g id="text_7">
      <!-- 7 -->
      <g transform="translate(134.287273 254.339375)scale(0.1 -0.1)">
       <defs>
        <path d="M 1491 102 
L 749 102 
L 2118 3872 
L 307 3872 
L 307 4442 
L 2848 4442 
L 2848 3891 
L 1491 102 
z
" id="D2CodingBold-37" transform="scale(0.015625)"/>
       </defs>
       <use xlink:href="#D2CodingBold-37"/>
      </g>
     </g>
    </g>
    <g id="xtick_8">
     <g id="line2d_15">
      <path clip-path="url(#p79f80d7237)" d="M 147.617576 240.08 
L 147.617576 22.68 
" style="fill:none;stroke:#b0b0b0;stroke-linecap:square;stroke-width:0.8;"/>
     </g>
     <g id="line2d_16">
      <g>
       <use style="stroke:#000000;stroke-width:0.8;" x="147.617576" xlink:href="#m1c91dd96a2" y="240.08"/>
      </g>
     </g>
     <g id="text_8">
      <!-- 8 -->
      <g transform="translate(145.117576 254.339375)scale(0.1 -0.1)">
       <defs>
        <path d="M 1613 595 
Q 1901 595 2083 790 
Q 2266 986 2266 1325 
Q 2266 1658 2080 1875 
Q 1894 2093 1613 2093 
Q 1478 2093 1360 2035 
Q 1242 1978 1152 1875 
Q 1062 1773 1011 1632 
Q 960 1491 960 1325 
Q 960 986 1149 790 
Q 1338 595 1613 595 
z
M 1600 2669 
Q 1818 2669 1987 2841 
Q 2157 3014 2157 3328 
Q 2157 3629 1997 3808 
Q 1837 3987 1600 3987 
Q 1376 3987 1216 3808 
Q 1056 3629 1056 3328 
Q 1056 3174 1101 3049 
Q 1146 2925 1222 2841 
Q 1299 2758 1398 2713 
Q 1498 2669 1600 2669 
z
M 1613 26 
Q 1299 26 1046 106 
Q 794 186 614 342 
Q 435 499 336 726 
Q 237 954 237 1254 
Q 237 1619 409 1923 
Q 582 2227 909 2381 
Q 666 2522 502 2768 
Q 339 3014 339 3322 
Q 339 3859 665 4185 
Q 992 4512 1594 4512 
Q 2189 4512 2528 4192 
Q 2867 3872 2867 3322 
Q 2867 3014 2713 2768 
Q 2560 2522 2317 2381 
Q 2624 2221 2806 1917 
Q 2989 1613 2989 1254 
Q 2989 653 2614 339 
Q 2240 26 1613 26 
z
" id="D2CodingBold-38" transform="scale(0.015625)"/>
       </defs>
       <use xlink:href="#D2CodingBold-38"/>
      </g>
     </g>
    </g>
    <g id="xtick_9">
     <g id="line2d_17">
      <path clip-path="url(#p79f80d7237)" d="M 158.447879 240.08 
L 158.447879 22.68 
" style="fill:none;stroke:#b0b0b0;stroke-linecap:square;stroke-width:0.8;"/>
     </g>
     <g id="line2d_18">
      <g>
       <use style="stroke:#000000;stroke-width:0.8;" x="158.447879" xlink:href="#m1c91dd96a2" y="240.08"/>
      </g>
     </g>
     <g id="text_9">
      <!-- 9 -->
      <g transform="translate(155.947879 254.339375)scale(0.1 -0.1)">
       <defs>
        <path d="M 493 787 
L 576 787 
Q 723 698 940 650 
Q 1158 602 1318 602 
Q 1510 602 1680 704 
Q 1850 806 1978 998 
Q 2106 1190 2186 1462 
Q 2266 1734 2266 2074 
Q 2118 1830 1910 1686 
Q 1702 1542 1478 1542 
Q 1152 1542 921 1644 
Q 691 1747 544 1936 
Q 397 2125 329 2387 
Q 262 2650 262 2970 
Q 262 3296 342 3581 
Q 422 3866 585 4070 
Q 749 4275 992 4393 
Q 1235 4512 1562 4512 
Q 2003 4512 2268 4317 
Q 2534 4122 2678 3821 
Q 2822 3520 2870 3158 
Q 2918 2797 2918 2464 
Q 2918 2074 2851 1645 
Q 2784 1216 2608 854 
Q 2432 493 2121 259 
Q 1811 26 1325 26 
Q 1088 26 883 74 
Q 678 122 493 230 
L 493 787 
z
M 2189 2970 
Q 2189 3130 2153 3302 
Q 2118 3475 2041 3619 
Q 1965 3763 1846 3856 
Q 1728 3949 1568 3949 
Q 1395 3949 1283 3865 
Q 1171 3782 1100 3648 
Q 1030 3514 1001 3344 
Q 973 3174 973 3002 
Q 973 2816 998 2656 
Q 1024 2496 1085 2371 
Q 1146 2246 1258 2176 
Q 1370 2106 1542 2106 
Q 1722 2106 1843 2186 
Q 1965 2266 2041 2390 
Q 2118 2515 2153 2668 
Q 2189 2822 2189 2970 
z
" id="D2CodingBold-39" transform="scale(0.015625)"/>
       </defs>
       <use xlink:href="#D2CodingBold-39"/>
      </g>
     </g>
    </g>
    <g id="xtick_10">
     <g id="line2d_19">
      <path clip-path="url(#p79f80d7237)" d="M 169.278182 240.08 
L 169.278182 22.68 
" style="fill:none;stroke:#b0b0b0;stroke-linecap:square;stroke-width:0.8;"/>
     </g>
     <g id="line2d_20">
      <g>
       <use style="stroke:#000000;stroke-width:0.8;" x="169.278182" xlink:href="#m1c91dd96a2" y="240.08"/>
      </g>
     </g>
     <g id="text_10">
      <!-- 10 -->
      <g transform="translate(164.278182 254.339375)scale(0.1 -0.1)">
       <defs>
        <path d="M 1600 4512 
Q 2259 4512 2611 3961 
Q 2963 3411 2963 2240 
Q 2963 1645 2873 1225 
Q 2784 806 2608 537 
Q 2432 269 2179 144 
Q 1926 19 1600 19 
Q 1261 19 1008 144 
Q 755 269 582 537 
Q 410 806 323 1225 
Q 237 1645 237 2240 
Q 237 3411 582 3961 
Q 928 4512 1600 4512 
z
M 1594 563 
Q 1786 563 1917 656 
Q 2048 749 2125 950 
Q 2202 1152 2237 1469 
Q 2272 1786 2272 2227 
Q 2272 2400 2265 2550 
Q 2259 2701 2246 2842 
L 1069 992 
Q 1210 563 1594 563 
z
M 1600 3949 
Q 1274 3949 1085 3523 
Q 896 3098 915 2221 
Q 922 2074 925 1939 
Q 928 1805 941 1690 
L 2112 3520 
Q 1952 3949 1600 3949 
z
" id="D2CodingBold-30" transform="scale(0.015625)"/>
       </defs>
       <use xlink:href="#D2CodingBold-31"/>
       <use x="49.999985" xlink:href="#D2CodingBold-30"/>
      </g>
     </g>
    </g>
    <g id="xtick_11">
     <g id="line2d_21">
      <path clip-path="url(#p79f80d7237)" d="M 180.108485 240.08 
L 180.108485 22.68 
" style="fill:none;stroke:#b0b0b0;stroke-linecap:square;stroke-width:0.8;"/>
     </g>
     <g id="line2d_22">
      <g>
       <use style="stroke:#000000;stroke-width:0.8;" x="180.108485" xlink:href="#m1c91dd96a2" y="240.08"/>
      </g>
     </g>
     <g id="text_11">
      <!-- 11 -->
      <g transform="translate(175.108485 254.339375)scale(0.1 -0.1)">
       <use xlink:href="#D2CodingBold-31"/>
       <use x="49.999985" xlink:href="#D2CodingBold-31"/>
      </g>
     </g>
    </g>
    <g id="xtick_12">
     <g id="line2d_23">
      <path clip-path="url(#p79f80d7237)" d="M 190.938788 240.08 
L 190.938788 22.68 
" style="fill:none;stroke:#b0b0b0;stroke-linecap:square;stroke-width:0.8;"/>
     </g>
     <g id="line2d_24">
      <g>
       <use style="stroke:#000000;stroke-width:0.8;" x="190.938788" xlink:href="#m1c91dd96a2" y="240.08"/>
      </g>
     </g>
     <g id="text_12">
      <!-- 12 -->
      <g transform="translate(185.938788 254.339375)scale(0.1 -0.1)">
       <use xlink:href="#D2CodingBold-31"/>
       <use x="49.999985" xlink:href="#D2CodingBold-32"/>
      </g>
     </g>
    </g>
    <g id="xtick_13">
     <g id="line2d_25">
      <path clip-path="url(#p79f80d7237)" d="M 201.769091 240.08 
L 201.769091 22.68 
" style="fill:none;stroke:#b0b0b0;stroke-linecap:square;stroke-width:0.8;"/>
     </g>
     <g id="line2d_26">
      <g>
       <use style="stroke:#000000;stroke-width:0.8;" x="201.769091" xlink:href="#m1c91dd96a2" y="240.08"/>
      </g>
     </g>
     <g id="text_13">
      <!-- 13 -->
      <g transform="translate(196.769091 254.339375)scale(0.1 -0.1)">
       <use xlink:href="#D2CodingBold-31"/>
       <use x="49.999985" xlink:href="#D2CodingBold-33"/>
      </g>
     </g>
    </g>
    <g id="xtick_14">
     <g id="line2d_27">
      <path clip-path="url(#p79f80d7237)" d="M 212.599394 240.08 
L 212.599394 22.68 
" style="fill:none;stroke:#b0b0b0;stroke-linecap:square;stroke-width:0.8;"/>
     </g>
     <g id="line2d_28">
      <g>
       <use style="stroke:#000000;stroke-width:0.8;" x="212.599394" xlink:href="#m1c91dd96a2" y="240.08"/>
      </g>
     </g>
     <g id="text_14">
      <!-- 14 -->
      <g transform="translate(207.599394 254.339375)scale(0.1 -0.1)">
       <use xlink:href="#D2CodingBold-31"/>
       <use x="49.999985" xlink:href="#D2CodingBold-34"/>
      </g>
     </g>
    </g>
    <g id="xtick_15">
     <g id="line2d_29">
      <path clip-path="url(#p79f80d7237)" d="M 223.429697 240.08 
L 223.429697 22.68 
" style="fill:none;stroke:#b0b0b0;stroke-linecap:square;stroke-width:0.8;"/>
     </g>
     <g id="line2d_30">
      <g>
       <use style="stroke:#000000;stroke-width:0.8;" x="223.429697" xlink:href="#m1c91dd96a2" y="240.08"/>
      </g>
     </g>
     <g id="text_15">
      <!-- 15 -->
      <g transform="translate(218.429697 254.339375)scale(0.1 -0.1)">
       <use xlink:href="#D2CodingBold-31"/>
       <use x="49.999985" xlink:href="#D2CodingBold-35"/>
      </g>
     </g>
    </g>
    <g id="xtick_16">
     <g id="line2d_31">
      <path clip-path="url(#p79f80d7237)" d="M 234.26 240.08 
L 234.26 22.68 
" style="fill:none;stroke:#b0b0b0;stroke-linecap:square;stroke-width:0.8;"/>
     </g>
     <g id="line2d_32">
      <g>
       <use style="stroke:#000000;stroke-width:0.8;" x="234.26" xlink:href="#m1c91dd96a2" y="240.08"/>
      </g>
     </g>
     <g id="text_16">
      <!-- 16 -->
      <g transform="translate(229.26 254.339375)scale(0.1 -0.1)">
       <use xlink:href="#D2CodingBold-31"/>
       <use x="49.999985" xlink:href="#D2CodingBold-36"/>
      </g>
     </g>
    </g>
    <g id="xtick_17">
     <g id="line2d_33">
      <path clip-path="url(#p79f80d7237)" d="M 245.090303 240.08 
L 245.090303 22.68 
" style="fill:none;stroke:#b0b0b0;stroke-linecap:square;stroke-width:0.8;"/>
     </g>
     <g id="line2d_34">
      <g>
       <use style="stroke:#000000;stroke-width:0.8;" x="245.090303" xlink:href="#m1c91dd96a2" y="240.08"/>
      </g>
     </g>
     <g id="text_17">
      <!-- 17 -->
      <g transform="translate(240.090303 254.339375)scale(0.1 -0.1)">
       <use xlink:href="#D2CodingBold-31"/>
       <use x="49.999985" xlink:href="#D2CodingBold-37"/>
      </g>
     </g>
    </g>
    <g id="xtick_18">
     <g id="line2d_35">
      <path clip-path="url(#p79f80d7237)" d="M 255.920606 240.08 
L 255.920606 22.68 
" style="fill:none;stroke:#b0b0b0;stroke-linecap:square;stroke-width:0.8;"/>
     </g>
     <g id="line2d_36">
      <g>
       <use style="stroke:#000000;stroke-width:0.8;" x="255.920606" xlink:href="#m1c91dd96a2" y="240.08"/>
      </g>
     </g>
     <g id="text_18">
      <!-- 18 -->
      <g transform="translate(250.920606 254.339375)scale(0.1 -0.1)">
       <use xlink:href="#D2CodingBold-31"/>
       <use x="49.999985" xlink:href="#D2CodingBold-38"/>
      </g>
     </g>
    </g>
    <g id="xtick_19">
     <g id="line2d_37">
      <path clip-path="url(#p79f80d7237)" d="M 266.750909 240.08 
L 266.750909 22.68 
" style="fill:none;stroke:#b0b0b0;stroke-linecap:square;stroke-width:0.8;"/>
     </g>
     <g id="line2d_38">
      <g>
       <use style="stroke:#000000;stroke-width:0.8;" x="266.750909" xlink:href="#m1c91dd96a2" y="240.08"/>
      </g>
     </g>
     <g id="text_19">
      <!-- 19 -->
      <g transform="translate(261.750909 254.339375)scale(0.1 -0.1)">
       <use xlink:href="#D2CodingBold-31"/>
       <use x="49.999985" xlink:href="#D2CodingBold-39"/>
      </g>
     </g>
    </g>
    <g id="xtick_20">
     <g id="line2d_39">
      <path clip-path="url(#p79f80d7237)" d="M 277.581212 240.08 
L 277.581212 22.68 
" style="fill:none;stroke:#b0b0b0;stroke-linecap:square;stroke-width:0.8;"/>
     </g>
     <g id="line2d_40">
      <g>
       <use style="stroke:#000000;stroke-width:0.8;" x="277.581212" xlink:href="#m1c91dd96a2" y="240.08"/>
      </g>
     </g>
     <g id="text_20">
      <!-- 20 -->
      <g transform="translate(272.581212 254.339375)scale(0.1 -0.1)">
       <use xlink:href="#D2CodingBold-32"/>
       <use x="49.999985" xlink:href="#D2CodingBold-30"/>
      </g>
     </g>
    </g>
    <g id="xtick_21">
     <g id="line2d_41">
      <path clip-path="url(#p79f80d7237)" d="M 288.411515 240.08 
L 288.411515 22.68 
" style="fill:none;stroke:#b0b0b0;stroke-linecap:square;stroke-width:0.8;"/>
     </g>
     <g id="line2d_42">
      <g>
       <use style="stroke:#000000;stroke-width:0.8;" x="288.411515" xlink:href="#m1c91dd96a2" y="240.08"/>
      </g>
     </g>
     <g id="text_21">
      <!-- 21 -->
      <g transform="translate(283.411515 254.339375)scale(0.1 -0.1)">
       <use xlink:href="#D2CodingBold-32"/>
       <use x="49.999985" xlink:href="#D2CodingBold-31"/>
      </g>
     </g>
    </g>
    <g id="xtick_22">
     <g id="line2d_43">
      <path clip-path="url(#p79f80d7237)" d="M 299.241818 240.08 
L 299.241818 22.68 
" style="fill:none;stroke:#b0b0b0;stroke-linecap:square;stroke-width:0.8;"/>
     </g>
     <g id="line2d_44">
      <g>
       <use style="stroke:#000000;stroke-width:0.8;" x="299.241818" xlink:href="#m1c91dd96a2" y="240.08"/>
      </g>
     </g>
     <g id="text_22">
      <!-- 22 -->
      <g transform="translate(294.241818 254.339375)scale(0.1 -0.1)">
       <use xlink:href="#D2CodingBold-32"/>
       <use x="49.999985" xlink:href="#D2CodingBold-32"/>
      </g>
     </g>
    </g>
    <g id="xtick_23">
     <g id="line2d_45">
      <path clip-path="url(#p79f80d7237)" d="M 310.072121 240.08 
L 310.072121 22.68 
" style="fill:none;stroke:#b0b0b0;stroke-linecap:square;stroke-width:0.8;"/>
     </g>
     <g id="line2d_46">
      <g>
       <use style="stroke:#000000;stroke-width:0.8;" x="310.072121" xlink:href="#m1c91dd96a2" y="240.08"/>
      </g>
     </g>
     <g id="text_23">
      <!-- 23 -->
      <g transform="translate(305.072121 254.339375)scale(0.1 -0.1)">
       <use xlink:href="#D2CodingBold-32"/>
       <use x="49.999985" xlink:href="#D2CodingBold-33"/>
      </g>
     </g>
    </g>
    <g id="xtick_24">
     <g id="line2d_47">
      <path clip-path="url(#p79f80d7237)" d="M 320.902424 240.08 
L 320.902424 22.68 
" style="fill:none;stroke:#b0b0b0;stroke-linecap:square;stroke-width:0.8;"/>
     </g>
     <g id="line2d_48">
      <g>
       <use style="stroke:#000000;stroke-width:0.8;" x="320.902424" xlink:href="#m1c91dd96a2" y="240.08"/>
      </g>
     </g>
     <g id="text_24">
      <!-- 24 -->
      <g transform="translate(315.902424 254.339375)scale(0.1 -0.1)">
       <use xlink:href="#D2CodingBold-32"/>
       <use x="49.999985" xlink:href="#D2CodingBold-34"/>
      </g>
     </g>
    </g>
    <g id="xtick_25">
     <g id="line2d_49">
      <path clip-path="url(#p79f80d7237)" d="M 331.732727 240.08 
L 331.732727 22.68 
" style="fill:none;stroke:#b0b0b0;stroke-linecap:square;stroke-width:0.8;"/>
     </g>
     <g id="line2d_50">
      <g>
       <use style="stroke:#000000;stroke-width:0.8;" x="331.732727" xlink:href="#m1c91dd96a2" y="240.08"/>
      </g>
     </g>
     <g id="text_25">
      <!-- 25 -->
      <g transform="translate(326.732727 254.339375)scale(0.1 -0.1)">
       <use xlink:href="#D2CodingBold-32"/>
       <use x="49.999985" xlink:href="#D2CodingBold-35"/>
      </g>
     </g>
    </g>
    <g id="xtick_26">
     <g id="line2d_51">
      <path clip-path="url(#p79f80d7237)" d="M 342.56303 240.08 
L 342.56303 22.68 
" style="fill:none;stroke:#b0b0b0;stroke-linecap:square;stroke-width:0.8;"/>
     </g>
     <g id="line2d_52">
      <g>
       <use style="stroke:#000000;stroke-width:0.8;" x="342.56303" xlink:href="#m1c91dd96a2" y="240.08"/>
      </g>
     </g>
     <g id="text_26">
      <!-- 26 -->
      <g transform="translate(337.56303 254.339375)scale(0.1 -0.1)">
       <use xlink:href="#D2CodingBold-32"/>
       <use x="49.999985" xlink:href="#D2CodingBold-36"/>
      </g>
     </g>
    </g>
    <g id="xtick_27">
     <g id="line2d_53">
      <path clip-path="url(#p79f80d7237)" d="M 353.393333 240.08 
L 353.393333 22.68 
" style="fill:none;stroke:#b0b0b0;stroke-linecap:square;stroke-width:0.8;"/>
     </g>
     <g id="line2d_54">
      <g>
       <use style="stroke:#000000;stroke-width:0.8;" x="353.393333" xlink:href="#m1c91dd96a2" y="240.08"/>
      </g>
     </g>
     <g id="text_27">
      <!-- 27 -->
      <g transform="translate(348.393333 254.339375)scale(0.1 -0.1)">
       <use xlink:href="#D2CodingBold-32"/>
       <use x="49.999985" xlink:href="#D2CodingBold-37"/>
      </g>
     </g>
    </g>
    <g id="xtick_28">
     <g id="line2d_55">
      <path clip-path="url(#p79f80d7237)" d="M 364.223636 240.08 
L 364.223636 22.68 
" style="fill:none;stroke:#b0b0b0;stroke-linecap:square;stroke-width:0.8;"/>
     </g>
     <g id="line2d_56">
      <g>
       <use style="stroke:#000000;stroke-width:0.8;" x="364.223636" xlink:href="#m1c91dd96a2" y="240.08"/>
      </g>
     </g>
     <g id="text_28">
      <!-- 28 -->
      <g transform="translate(359.223636 254.339375)scale(0.1 -0.1)">
       <use xlink:href="#D2CodingBold-32"/>
       <use x="49.999985" xlink:href="#D2CodingBold-38"/>
      </g>
     </g>
    </g>
    <g id="xtick_29">
     <g id="line2d_57">
      <path clip-path="url(#p79f80d7237)" d="M 375.053939 240.08 
L 375.053939 22.68 
" style="fill:none;stroke:#b0b0b0;stroke-linecap:square;stroke-width:0.8;"/>
     </g>
     <g id="line2d_58">
      <g>
       <use style="stroke:#000000;stroke-width:0.8;" x="375.053939" xlink:href="#m1c91dd96a2" y="240.08"/>
      </g>
     </g>
     <g id="text_29">
      <!-- 29 -->
      <g transform="translate(370.053939 254.339375)scale(0.1 -0.1)">
       <use xlink:href="#D2CodingBold-32"/>
       <use x="49.999985" xlink:href="#D2CodingBold-39"/>
      </g>
     </g>
    </g>
    <g id="xtick_30">
     <g id="line2d_59">
      <path clip-path="url(#p79f80d7237)" d="M 385.884242 240.08 
L 385.884242 22.68 
" style="fill:none;stroke:#b0b0b0;stroke-linecap:square;stroke-width:0.8;"/>
     </g>
     <g id="line2d_60">
      <g>
       <use style="stroke:#000000;stroke-width:0.8;" x="385.884242" xlink:href="#m1c91dd96a2" y="240.08"/>
      </g>
     </g>
     <g id="text_30">
      <!-- 30 -->
      <g transform="translate(380.884242 254.339375)scale(0.1 -0.1)">
       <use xlink:href="#D2CodingBold-33"/>
       <use x="49.999985" xlink:href="#D2CodingBold-30"/>
      </g>
     </g>
    </g>
    <g id="xtick_31">
     <g id="line2d_61">
      <path clip-path="url(#p79f80d7237)" d="M 396.714545 240.08 
L 396.714545 22.68 
" style="fill:none;stroke:#b0b0b0;stroke-linecap:square;stroke-width:0.8;"/>
     </g>
     <g id="line2d_62">
      <g>
       <use style="stroke:#000000;stroke-width:0.8;" x="396.714545" xlink:href="#m1c91dd96a2" y="240.08"/>
      </g>
     </g>
     <g id="text_31">
      <!-- 31 -->
      <g transform="translate(391.714545 254.339375)scale(0.1 -0.1)">
       <use xlink:href="#D2CodingBold-33"/>
       <use x="49.999985" xlink:href="#D2CodingBold-31"/>
      </g>
     </g>
    </g>
    <g id="text_32">
     <!-- Day of Contract -->
     <g transform="translate(196.76 267.139375)scale(0.1 -0.1)">
      <defs>
       <path d="M 1050 3840 
L 1050 691 
L 1286 691 
Q 1600 691 1798 780 
Q 1997 870 2105 1062 
Q 2214 1254 2256 1555 
Q 2298 1856 2298 2278 
Q 2298 2694 2256 2988 
Q 2214 3283 2102 3472 
Q 1990 3661 1798 3750 
Q 1606 3840 1306 3840 
L 1050 3840 
z
M 333 102 
L 333 4442 
L 1325 4442 
Q 1792 4442 2115 4320 
Q 2438 4198 2640 3936 
Q 2842 3674 2934 3267 
Q 3027 2861 3027 2285 
Q 3027 1677 2931 1261 
Q 2835 845 2627 589 
Q 2419 333 2092 217 
Q 1766 102 1299 102 
L 333 102 
z
" id="D2CodingBold-44" transform="scale(0.015625)"/>
       <path d="M 2118 1677 
L 1491 1555 
Q 1222 1510 1091 1388 
Q 960 1267 960 1030 
Q 960 826 1062 710 
Q 1165 595 1376 595 
Q 1530 595 1664 652 
Q 1798 710 1900 806 
Q 2003 902 2060 1036 
Q 2118 1171 2118 1325 
L 2118 1677 
z
M 454 2541 
L 454 3117 
Q 736 3283 1005 3360 
Q 1274 3437 1600 3437 
Q 2189 3437 2489 3117 
Q 2790 2797 2790 2163 
L 2790 102 
L 2144 102 
L 2131 486 
Q 2061 390 1961 307 
Q 1862 224 1744 160 
Q 1626 96 1498 57 
Q 1370 19 1248 19 
Q 762 19 499 272 
Q 237 525 237 986 
Q 237 1440 483 1686 
Q 730 1933 1248 2022 
L 2099 2157 
L 2099 2208 
Q 2099 2554 1964 2707 
Q 1830 2861 1562 2861 
Q 1293 2861 1046 2784 
Q 800 2707 538 2541 
L 454 2541 
z
" id="D2CodingBold-61" transform="scale(0.015625)"/>
       <path d="M 346 -384 
L 435 -384 
Q 518 -416 630 -438 
Q 742 -461 794 -461 
Q 941 -461 1046 -387 
Q 1152 -314 1229 -90 
Q 1248 -26 1267 35 
Q 1286 96 1344 288 
Q 1056 1030 745 1830 
Q 435 2630 147 3366 
L 909 3366 
L 1587 1402 
L 1645 1088 
L 1715 1376 
L 2336 3366 
L 3059 3366 
L 1933 90 
Q 1837 -198 1734 -406 
Q 1632 -614 1510 -748 
Q 1389 -883 1235 -947 
Q 1082 -1011 883 -1011 
Q 768 -1011 643 -995 
Q 518 -979 346 -934 
L 346 -384 
z
" id="D2CodingBold-79" transform="scale(0.015625)"/>
       <path id="D2CodingBold-20" transform="scale(0.015625)"/>
       <path d="M 1606 19 
Q 1210 19 944 153 
Q 678 288 521 518 
Q 365 749 301 1059 
Q 237 1370 237 1728 
Q 237 2086 304 2396 
Q 371 2707 528 2937 
Q 685 3168 947 3302 
Q 1210 3437 1606 3437 
Q 1990 3437 2249 3302 
Q 2509 3168 2669 2937 
Q 2829 2707 2899 2393 
Q 2970 2080 2970 1728 
Q 2970 1370 2902 1059 
Q 2835 749 2678 518 
Q 2522 288 2259 153 
Q 1997 19 1606 19 
z
M 1606 557 
Q 1952 557 2112 870 
Q 2272 1184 2272 1728 
Q 2272 2278 2112 2588 
Q 1952 2899 1606 2899 
Q 1248 2899 1091 2588 
Q 934 2278 934 1728 
Q 934 1184 1091 870 
Q 1248 557 1606 557 
z
" id="D2CodingBold-6f" transform="scale(0.015625)"/>
       <path d="M 2810 3949 
Q 2682 4032 2512 4067 
Q 2342 4102 2234 4102 
Q 2048 4102 1942 3990 
Q 1837 3878 1837 3642 
L 1837 3366 
L 2886 3366 
L 2886 2797 
L 1837 2797 
L 1837 102 
L 1139 102 
L 1139 2797 
L 390 2797 
L 390 3366 
L 1139 3366 
L 1139 3680 
Q 1139 4186 1411 4416 
Q 1683 4646 2221 4646 
Q 2394 4646 2560 4611 
Q 2726 4576 2886 4493 
L 2886 3949 
L 2810 3949 
z
" id="D2CodingBold-66" transform="scale(0.015625)"/>
       <path d="M 2950 992 
L 2950 346 
Q 2733 179 2489 102 
Q 2246 26 1926 26 
Q 1466 26 1146 189 
Q 826 352 627 646 
Q 429 941 339 1350 
Q 250 1760 250 2246 
Q 250 2733 336 3149 
Q 422 3565 620 3869 
Q 819 4173 1136 4345 
Q 1453 4518 1907 4518 
Q 2208 4518 2432 4457 
Q 2656 4397 2880 4288 
L 2880 3610 
L 2784 3610 
Q 2579 3763 2371 3830 
Q 2163 3898 1914 3898 
Q 1472 3898 1235 3485 
Q 998 3072 998 2291 
Q 998 1472 1241 1056 
Q 1485 640 1946 640 
Q 2214 640 2428 723 
Q 2643 806 2848 992 
L 2950 992 
z
" id="D2CodingBold-43" transform="scale(0.015625)"/>
       <path d="M 2848 102 
L 2157 102 
L 2157 2054 
Q 2157 2509 2051 2691 
Q 1946 2874 1683 2874 
Q 1549 2874 1437 2803 
Q 1325 2733 1241 2605 
Q 1158 2477 1110 2301 
Q 1062 2125 1062 1914 
L 1062 102 
L 371 102 
L 371 3366 
L 1024 3366 
L 1043 2931 
Q 1184 3187 1392 3308 
Q 1600 3430 1811 3430 
Q 2138 3430 2339 3328 
Q 2541 3226 2656 3040 
Q 2771 2854 2809 2601 
Q 2848 2349 2848 2042 
L 2848 102 
z
" id="D2CodingBold-6e" transform="scale(0.015625)"/>
       <path d="M 2790 774 
L 2790 243 
Q 2637 134 2435 86 
Q 2234 38 2048 38 
Q 1581 38 1305 265 
Q 1030 493 1030 979 
L 1030 2797 
L 384 2797 
L 384 3366 
L 1030 3366 
L 1030 4173 
L 1728 4506 
L 1728 3366 
L 2746 3366 
L 2746 2797 
L 1728 2797 
L 1728 1030 
Q 1728 621 2176 621 
Q 2336 621 2467 669 
Q 2598 717 2707 774 
L 2790 774 
z
" id="D2CodingBold-74" transform="scale(0.015625)"/>
       <path d="M 1242 3366 
L 1267 2797 
Q 1382 3072 1641 3254 
Q 1901 3437 2221 3437 
Q 2432 3437 2633 3385 
Q 2835 3334 3021 3206 
L 3021 2579 
L 2938 2579 
Q 2867 2624 2771 2665 
Q 2675 2707 2566 2739 
Q 2458 2771 2352 2793 
Q 2246 2816 2157 2816 
Q 1958 2816 1804 2726 
Q 1651 2637 1542 2483 
Q 1434 2330 1376 2131 
Q 1318 1933 1318 1722 
L 1318 102 
L 621 102 
L 621 3366 
L 1242 3366 
z
" id="D2CodingBold-72" transform="scale(0.015625)"/>
       <path d="M 2829 922 
L 2829 294 
Q 2637 109 2393 64 
Q 2150 19 1888 19 
Q 1139 19 752 454 
Q 365 890 365 1709 
Q 365 2099 461 2416 
Q 557 2733 749 2960 
Q 941 3187 1222 3312 
Q 1504 3437 1882 3437 
Q 2400 3437 2810 3162 
L 2810 2560 
L 2720 2560 
Q 2541 2707 2320 2771 
Q 2099 2835 1901 2835 
Q 1670 2835 1510 2745 
Q 1350 2656 1254 2502 
Q 1158 2349 1113 2147 
Q 1069 1946 1069 1715 
Q 1069 1472 1110 1267 
Q 1152 1062 1254 915 
Q 1357 768 1520 688 
Q 1683 608 1926 608 
Q 2125 608 2342 681 
Q 2560 755 2733 922 
L 2829 922 
z
" id="D2CodingBold-63" transform="scale(0.015625)"/>
      </defs>
      <use xlink:href="#D2CodingBold-44"/>
      <use x="49.999985" xlink:href="#D2CodingBold-61"/>
      <use x="99.999969" xlink:href="#D2CodingBold-79"/>
      <use x="149.999954" xlink:href="#D2CodingBold-20"/>
      <use x="199.999939" xlink:href="#D2CodingBold-6f"/>
      <use x="249.999924" xlink:href="#D2CodingBold-66"/>
      <use x="299.999908" xlink:href="#D2CodingBold-20"/>
      <use x="349.999893" xlink:href="#D2CodingBold-43"/>
      <use x="399.999878" xlink:href="#D2CodingBold-6f"/>
      <use x="449.999863" xlink:href="#D2CodingBold-6e"/>
      <use x="499.999847" xlink:href="#D2CodingBold-74"/>
      <use x="549.999832" xlink:href="#D2CodingBold-72"/>
      <use x="599.999817" xlink:href="#D2CodingBold-61"/>
      <use x="649.999802" xlink:href="#D2CodingBold-63"/>
      <use x="699.999786" xlink:href="#D2CodingBold-74"/>
     </g>
    </g>
   </g>
   <g id="matplotlib.axis_2">
    <g id="ytick_1">
     <g id="line2d_63">
      <path clip-path="url(#p79f80d7237)" d="M 55.56 227.006592 
L 412.96 227.006592 
" style="fill:none;stroke:#b0b0b0;stroke-linecap:square;stroke-width:0.8;"/>
     </g>
     <g id="line2d_64">
      <defs>
       <path d="M 0 0 
L -3.5 0 
" id="mb00bceca90" style="stroke:#000000;stroke-width:0.8;"/>
      </defs>
      <g>
       <use style="stroke:#000000;stroke-width:0.8;" x="55.56" xlink:href="#mb00bceca90" y="227.006592"/>
      </g>
     </g>
     <g id="text_33">
      <!-- 0.020 -->
      <g transform="translate(23.56 230.63628)scale(0.1 -0.1)">
       <defs>
        <path d="M 1011 698 
Q 1011 934 1171 1097 
Q 1331 1261 1568 1261 
Q 1805 1261 1968 1097 
Q 2131 934 2131 698 
Q 2131 461 1968 301 
Q 1805 141 1568 141 
Q 1331 141 1171 301 
Q 1011 461 1011 698 
z
" id="D2CodingBold-2e" transform="scale(0.015625)"/>
       </defs>
       <use xlink:href="#D2CodingBold-30"/>
       <use x="49.999985" xlink:href="#D2CodingBold-2e"/>
       <use x="99.999969" xlink:href="#D2CodingBold-30"/>
       <use x="149.999954" xlink:href="#D2CodingBold-32"/>
       <use x="199.999939" xlink:href="#D2CodingBold-30"/>
      </g>
     </g>
    </g>
    <g id="ytick_2">
     <g id="line2d_65">
      <path clip-path="url(#p79f80d7237)" d="M 55.56 202.072985 
L 412.96 202.072985 
" style="fill:none;stroke:#b0b0b0;stroke-linecap:square;stroke-width:0.8;"/>
     </g>
     <g id="line2d_66">
      <g>
       <use style="stroke:#000000;stroke-width:0.8;" x="55.56" xlink:href="#mb00bceca90" y="202.072985"/>
      </g>
     </g>
     <g id="text_34">
      <!-- 0.022 -->
      <g transform="translate(23.56 205.702672)scale(0.1 -0.1)">
       <use xlink:href="#D2CodingBold-30"/>
       <use x="49.999985" xlink:href="#D2CodingBold-2e"/>
       <use x="99.999969" xlink:href="#D2CodingBold-30"/>
       <use x="149.999954" xlink:href="#D2CodingBold-32"/>
       <use x="199.999939" xlink:href="#D2CodingBold-32"/>
      </g>
     </g>
    </g>
    <g id="ytick_3">
     <g id="line2d_67">
      <path clip-path="url(#p79f80d7237)" d="M 55.56 177.139377 
L 412.96 177.139377 
" style="fill:none;stroke:#b0b0b0;stroke-linecap:square;stroke-width:0.8;"/>
     </g>
     <g id="line2d_68">
      <g>
       <use style="stroke:#000000;stroke-width:0.8;" x="55.56" xlink:href="#mb00bceca90" y="177.139377"/>
      </g>
     </g>
     <g id="text_35">
      <!-- 0.024 -->
      <g transform="translate(23.56 180.769065)scale(0.1 -0.1)">
       <use xlink:href="#D2CodingBold-30"/>
       <use x="49.999985" xlink:href="#D2CodingBold-2e"/>
       <use x="99.999969" xlink:href="#D2CodingBold-30"/>
       <use x="149.999954" xlink:href="#D2CodingBold-32"/>
       <use x="199.999939" xlink:href="#D2CodingBold-34"/>
      </g>
     </g>
    </g>
    <g id="ytick_4">
     <g id="line2d_69">
      <path clip-path="url(#p79f80d7237)" d="M 55.56 152.20577 
L 412.96 152.20577 
" style="fill:none;stroke:#b0b0b0;stroke-linecap:square;stroke-width:0.8;"/>
     </g>
     <g id="line2d_70">
      <g>
       <use style="stroke:#000000;stroke-width:0.8;" x="55.56" xlink:href="#mb00bceca90" y="152.20577"/>
      </g>
     </g>
     <g id="text_36">
      <!-- 0.026 -->
      <g transform="translate(23.56 155.835457)scale(0.1 -0.1)">
       <use xlink:href="#D2CodingBold-30"/>
       <use x="49.999985" xlink:href="#D2CodingBold-2e"/>
       <use x="99.999969" xlink:href="#D2CodingBold-30"/>
       <use x="149.999954" xlink:href="#D2CodingBold-32"/>
       <use x="199.999939" xlink:href="#D2CodingBold-36"/>
      </g>
     </g>
    </g>
    <g id="ytick_5">
     <g id="line2d_71">
      <path clip-path="url(#p79f80d7237)" d="M 55.56 127.272162 
L 412.96 127.272162 
" style="fill:none;stroke:#b0b0b0;stroke-linecap:square;stroke-width:0.8;"/>
     </g>
     <g id="line2d_72">
      <g>
       <use style="stroke:#000000;stroke-width:0.8;" x="55.56" xlink:href="#mb00bceca90" y="127.272162"/>
      </g>
     </g>
     <g id="text_37">
      <!-- 0.028 -->
      <g transform="translate(23.56 130.90185)scale(0.1 -0.1)">
       <use xlink:href="#D2CodingBold-30"/>
       <use x="49.999985" xlink:href="#D2CodingBold-2e"/>
       <use x="99.999969" xlink:href="#D2CodingBold-30"/>
       <use x="149.999954" xlink:href="#D2CodingBold-32"/>
       <use x="199.999939" xlink:href="#D2CodingBold-38"/>
      </g>
     </g>
    </g>
    <g id="ytick_6">
     <g id="line2d_73">
      <path clip-path="url(#p79f80d7237)" d="M 55.56 102.338554 
L 412.96 102.338554 
" style="fill:none;stroke:#b0b0b0;stroke-linecap:square;stroke-width:0.8;"/>
     </g>
     <g id="line2d_74">
      <g>
       <use style="stroke:#000000;stroke-width:0.8;" x="55.56" xlink:href="#mb00bceca90" y="102.338554"/>
      </g>
     </g>
     <g id="text_38">
      <!-- 0.030 -->
      <g transform="translate(23.56 105.968242)scale(0.1 -0.1)">
       <use xlink:href="#D2CodingBold-30"/>
       <use x="49.999985" xlink:href="#D2CodingBold-2e"/>
       <use x="99.999969" xlink:href="#D2CodingBold-30"/>
       <use x="149.999954" xlink:href="#D2CodingBold-33"/>
       <use x="199.999939" xlink:href="#D2CodingBold-30"/>
      </g>
     </g>
    </g>
    <g id="ytick_7">
     <g id="line2d_75">
      <path clip-path="url(#p79f80d7237)" d="M 55.56 77.404947 
L 412.96 77.404947 
" style="fill:none;stroke:#b0b0b0;stroke-linecap:square;stroke-width:0.8;"/>
     </g>
     <g id="line2d_76">
      <g>
       <use style="stroke:#000000;stroke-width:0.8;" x="55.56" xlink:href="#mb00bceca90" y="77.404947"/>
      </g>
     </g>
     <g id="text_39">
      <!-- 0.032 -->
      <g transform="translate(23.56 81.034634)scale(0.1 -0.1)">
       <use xlink:href="#D2CodingBold-30"/>
       <use x="49.999985" xlink:href="#D2CodingBold-2e"/>
       <use x="99.999969" xlink:href="#D2CodingBold-30"/>
       <use x="149.999954" xlink:href="#D2CodingBold-33"/>
       <use x="199.999939" xlink:href="#D2CodingBold-32"/>
      </g>
     </g>
    </g>
    <g id="ytick_8">
     <g id="line2d_77">
      <path clip-path="url(#p79f80d7237)" d="M 55.56 52.471339 
L 412.96 52.471339 
" style="fill:none;stroke:#b0b0b0;stroke-linecap:square;stroke-width:0.8;"/>
     </g>
     <g id="line2d_78">
      <g>
       <use style="stroke:#000000;stroke-width:0.8;" x="55.56" xlink:href="#mb00bceca90" y="52.471339"/>
      </g>
     </g>
     <g id="text_40">
      <!-- 0.034 -->
      <g transform="translate(23.56 56.101027)scale(0.1 -0.1)">
       <use xlink:href="#D2CodingBold-30"/>
       <use x="49.999985" xlink:href="#D2CodingBold-2e"/>
       <use x="99.999969" xlink:href="#D2CodingBold-30"/>
       <use x="149.999954" xlink:href="#D2CodingBold-33"/>
       <use x="199.999939" xlink:href="#D2CodingBold-34"/>
      </g>
     </g>
    </g>
    <g id="ytick_9">
     <g id="line2d_79">
      <path clip-path="url(#p79f80d7237)" d="M 55.56 27.537732 
L 412.96 27.537732 
" style="fill:none;stroke:#b0b0b0;stroke-linecap:square;stroke-width:0.8;"/>
     </g>
     <g id="line2d_80">
      <g>
       <use style="stroke:#000000;stroke-width:0.8;" x="55.56" xlink:href="#mb00bceca90" y="27.537732"/>
      </g>
     </g>
     <g id="text_41">
      <!-- 0.036 -->
      <g transform="translate(23.56 31.167419)scale(0.1 -0.1)">
       <use xlink:href="#D2CodingBold-30"/>
       <use x="49.999985" xlink:href="#D2CodingBold-2e"/>
       <use x="99.999969" xlink:href="#D2CodingBold-30"/>
       <use x="149.999954" xlink:href="#D2CodingBold-33"/>
       <use x="199.999939" xlink:href="#D2CodingBold-36"/>
      </g>
     </g>
    </g>
    <g id="text_42">
     <!-- $sign\_day$ lease ratio -->
     <g transform="translate(16.68 193.84)rotate(-90)scale(0.12 -0.12)">
      <defs>
       <path d="M 3200 3397 
L 3091 2853 
Q 2863 2978 2609 3040 
Q 2356 3103 2088 3103 
Q 1634 3103 1373 2948 
Q 1113 2794 1113 2528 
Q 1113 2219 1719 2053 
Q 1766 2041 1788 2034 
L 1972 1978 
Q 2547 1819 2739 1644 
Q 2931 1469 2931 1166 
Q 2931 609 2489 259 
Q 2047 -91 1331 -91 
Q 1053 -91 747 -37 
Q 441 16 72 128 
L 184 722 
Q 500 559 806 475 
Q 1113 391 1394 391 
Q 1816 391 2080 572 
Q 2344 753 2344 1031 
Q 2344 1331 1650 1516 
L 1591 1531 
L 1394 1581 
Q 956 1697 753 1886 
Q 550 2075 550 2369 
Q 550 2928 970 3256 
Q 1391 3584 2113 3584 
Q 2397 3584 2667 3537 
Q 2938 3491 3200 3397 
z
" id="DejaVuSans-Oblique-73" transform="scale(0.015625)"/>
       <path d="M 1172 4863 
L 1747 4863 
L 1606 4134 
L 1031 4134 
L 1172 4863 
z
M 909 3500 
L 1484 3500 
L 800 0 
L 225 0 
L 909 3500 
z
" id="DejaVuSans-Oblique-69" transform="scale(0.015625)"/>
       <path d="M 3816 3500 
L 3219 434 
Q 3047 -456 2561 -893 
Q 2075 -1331 1253 -1331 
Q 950 -1331 690 -1286 
Q 431 -1241 206 -1147 
L 313 -588 
Q 525 -725 762 -790 
Q 1000 -856 1269 -856 
Q 1816 -856 2167 -557 
Q 2519 -259 2631 300 
L 2681 563 
Q 2441 288 2122 144 
Q 1803 0 1434 0 
Q 903 0 598 351 
Q 294 703 294 1319 
Q 294 1803 478 2267 
Q 663 2731 997 3091 
Q 1219 3328 1514 3456 
Q 1809 3584 2131 3584 
Q 2484 3584 2746 3420 
Q 3009 3256 3138 2956 
L 3238 3500 
L 3816 3500 
z
M 2950 2216 
Q 2950 2641 2750 2872 
Q 2550 3103 2181 3103 
Q 1953 3103 1747 3012 
Q 1541 2922 1394 2759 
Q 1156 2491 1023 2127 
Q 891 1763 891 1375 
Q 891 944 1092 712 
Q 1294 481 1672 481 
Q 2219 481 2584 976 
Q 2950 1472 2950 2216 
z
" id="DejaVuSans-Oblique-67" transform="scale(0.015625)"/>
       <path d="M 3566 2113 
L 3156 0 
L 2578 0 
L 2988 2091 
Q 3016 2238 3031 2350 
Q 3047 2463 3047 2528 
Q 3047 2791 2881 2937 
Q 2716 3084 2419 3084 
Q 1956 3084 1622 2776 
Q 1288 2469 1184 1941 
L 800 0 
L 225 0 
L 903 3500 
L 1478 3500 
L 1363 2950 
Q 1603 3253 1940 3418 
Q 2278 3584 2650 3584 
Q 3113 3584 3367 3334 
Q 3622 3084 3622 2631 
Q 3622 2519 3608 2391 
Q 3594 2263 3566 2113 
z
" id="DejaVuSans-Oblique-6e" transform="scale(0.015625)"/>
       <path d="M 3263 -1063 
L 3263 -1509 
L -63 -1509 
L -63 -1063 
L 3263 -1063 
z
" id="DejaVuSans-5f" transform="scale(0.015625)"/>
       <path d="M 2675 525 
Q 2444 222 2128 65 
Q 1813 -91 1428 -91 
Q 903 -91 598 267 
Q 294 625 294 1247 
Q 294 1766 478 2236 
Q 663 2706 1013 3078 
Q 1244 3325 1534 3454 
Q 1825 3584 2144 3584 
Q 2481 3584 2739 3421 
Q 2997 3259 3138 2956 
L 3513 4863 
L 4091 4863 
L 3144 0 
L 2566 0 
L 2675 525 
z
M 891 1350 
Q 891 897 1095 644 
Q 1300 391 1663 391 
Q 1931 391 2161 520 
Q 2391 650 2566 903 
Q 2750 1166 2856 1509 
Q 2963 1853 2963 2188 
Q 2963 2622 2758 2865 
Q 2553 3109 2194 3109 
Q 1922 3109 1687 2981 
Q 1453 2853 1288 2613 
Q 1106 2353 998 2009 
Q 891 1666 891 1350 
z
" id="DejaVuSans-Oblique-64" transform="scale(0.015625)"/>
       <path d="M 3438 1997 
L 3047 0 
L 2472 0 
L 2578 531 
Q 2325 219 2001 64 
Q 1678 -91 1281 -91 
Q 834 -91 548 182 
Q 263 456 263 884 
Q 263 1497 752 1853 
Q 1241 2209 2100 2209 
L 2900 2209 
L 2931 2363 
Q 2938 2388 2941 2417 
Q 2944 2447 2944 2509 
Q 2944 2788 2717 2942 
Q 2491 3097 2081 3097 
Q 1800 3097 1504 3025 
Q 1209 2953 897 2809 
L 997 3341 
Q 1322 3463 1633 3523 
Q 1944 3584 2234 3584 
Q 2853 3584 3176 3315 
Q 3500 3047 3500 2534 
Q 3500 2431 3484 2292 
Q 3469 2153 3438 1997 
z
M 2816 1759 
L 2241 1759 
Q 1534 1759 1195 1570 
Q 856 1381 856 984 
Q 856 709 1029 553 
Q 1203 397 1509 397 
Q 1978 397 2328 733 
Q 2678 1069 2791 1631 
L 2816 1759 
z
" id="DejaVuSans-Oblique-61" transform="scale(0.015625)"/>
       <path d="M 1588 -325 
Q 1188 -997 936 -1164 
Q 684 -1331 294 -1331 
L -159 -1331 
L -63 -850 
L 269 -850 
Q 509 -850 678 -719 
Q 847 -588 1056 -206 
L 1234 128 
L 459 3500 
L 1069 3500 
L 1650 819 
L 3256 3500 
L 3859 3500 
L 1588 -325 
z
" id="DejaVuSans-Oblique-79" transform="scale(0.015625)"/>
       <path d="M 1958 4646 
L 1958 794 
Q 1958 672 2080 672 
L 2874 672 
L 2874 102 
L 1901 102 
Q 1734 102 1612 160 
Q 1491 218 1414 314 
Q 1338 410 1299 534 
Q 1261 659 1261 794 
L 1261 4077 
L 589 4077 
L 589 4646 
L 1958 4646 
z
" id="D2CodingBold-6c" transform="scale(0.015625)"/>
       <path d="M 1651 2874 
Q 1101 2874 973 2202 
L 2208 2221 
Q 2144 2874 1651 2874 
z
M 1670 3437 
Q 1997 3437 2233 3325 
Q 2470 3213 2627 3017 
Q 2784 2822 2857 2550 
Q 2931 2278 2931 1965 
L 2931 1664 
L 954 1664 
Q 954 1440 995 1248 
Q 1037 1056 1129 915 
Q 1222 774 1369 691 
Q 1517 608 1734 608 
Q 1837 608 1965 633 
Q 2093 659 2227 700 
Q 2362 742 2490 806 
Q 2618 870 2720 947 
L 2810 947 
L 2810 333 
Q 2573 166 2320 92 
Q 2067 19 1722 19 
Q 1325 19 1046 144 
Q 768 269 585 499 
Q 403 730 320 1046 
Q 237 1363 237 1747 
Q 237 2138 323 2448 
Q 410 2758 586 2979 
Q 762 3200 1030 3318 
Q 1299 3437 1670 3437 
z
" id="D2CodingBold-65" transform="scale(0.015625)"/>
       <path d="M 435 966 
Q 570 883 720 816 
Q 870 749 1014 704 
Q 1158 659 1289 633 
Q 1421 608 1517 608 
Q 1786 608 1968 697 
Q 2150 787 2150 992 
Q 2150 1101 1964 1241 
Q 1779 1382 1338 1568 
Q 902 1754 678 1984 
Q 454 2214 454 2560 
Q 454 2989 761 3219 
Q 1069 3450 1626 3450 
Q 1875 3450 2137 3389 
Q 2400 3328 2643 3200 
L 2643 2630 
L 2566 2630 
Q 2483 2682 2358 2730 
Q 2234 2778 2099 2813 
Q 1965 2848 1833 2867 
Q 1702 2886 1606 2886 
Q 1408 2886 1289 2809 
Q 1171 2733 1171 2586 
Q 1171 2496 1216 2425 
Q 1261 2355 1353 2291 
Q 1446 2227 1593 2156 
Q 1741 2086 1946 2003 
Q 2118 1933 2284 1843 
Q 2451 1754 2585 1635 
Q 2720 1517 2803 1360 
Q 2886 1203 2886 998 
Q 2886 736 2777 550 
Q 2669 365 2483 249 
Q 2298 134 2058 80 
Q 1818 26 1549 26 
Q 1254 26 950 96 
Q 646 166 358 346 
L 358 966 
L 435 966 
z
" id="D2CodingBold-73" transform="scale(0.015625)"/>
       <path d="M 2016 3366 
L 2016 666 
L 2886 666 
L 2886 102 
L 371 102 
L 371 666 
L 1312 666 
L 1312 2797 
L 582 2797 
L 582 3366 
L 2016 3366 
z
M 1107 4493 
Q 1107 4704 1254 4851 
Q 1402 4998 1606 4998 
Q 1811 4998 1958 4851 
Q 2106 4704 2106 4493 
Q 2106 4282 1958 4134 
Q 1811 3987 1606 3987 
Q 1402 3987 1254 4134 
Q 1107 4282 1107 4493 
z
" id="D2CodingBold-69" transform="scale(0.015625)"/>
      </defs>
      <use transform="translate(0 0.90625)" xlink:href="#DejaVuSans-Oblique-73"/>
      <use transform="translate(52.099609 0.90625)" xlink:href="#DejaVuSans-Oblique-69"/>
      <use transform="translate(79.882812 0.90625)" xlink:href="#DejaVuSans-Oblique-67"/>
      <use transform="translate(143.359375 0.90625)" xlink:href="#DejaVuSans-Oblique-6e"/>
      <use transform="translate(206.738281 0.90625)" xlink:href="#DejaVuSans-5f"/>
      <use transform="translate(256.738281 0.90625)" xlink:href="#DejaVuSans-Oblique-64"/>
      <use transform="translate(320.214844 0.90625)" xlink:href="#DejaVuSans-Oblique-61"/>
      <use transform="translate(381.494141 0.90625)" xlink:href="#DejaVuSans-Oblique-79"/>
      <use transform="translate(440.673828 0.90625)" xlink:href="#D2CodingBold-20"/>
      <use transform="translate(490.673813 0.90625)" xlink:href="#D2CodingBold-6c"/>
      <use transform="translate(540.673798 0.90625)" xlink:href="#D2CodingBold-65"/>
      <use transform="translate(590.673782 0.90625)" xlink:href="#D2CodingBold-61"/>
      <use transform="translate(640.673767 0.90625)" xlink:href="#D2CodingBold-73"/>
      <use transform="translate(690.673752 0.90625)" xlink:href="#D2CodingBold-65"/>
      <use transform="translate(740.673737 0.90625)" xlink:href="#D2CodingBold-20"/>
      <use transform="translate(790.673721 0.90625)" xlink:href="#D2CodingBold-72"/>
      <use transform="translate(840.673706 0.90625)" xlink:href="#D2CodingBold-61"/>
      <use transform="translate(890.673691 0.90625)" xlink:href="#D2CodingBold-74"/>
      <use transform="translate(940.673676 0.90625)" xlink:href="#D2CodingBold-69"/>
      <use transform="translate(990.67366 0.90625)" xlink:href="#D2CodingBold-6f"/>
     </g>
    </g>
   </g>
   <g id="line2d_81">
    <path clip-path="url(#p79f80d7237)" d="M 71.805455 85.827053 
L 82.635758 115.162574 
L 93.466061 86.836137 
L 104.296364 74.727126 
L 115.126667 98.008141 
L 125.95697 82.367335 
L 136.787273 61.681107 
L 147.617576 51.878574 
L 158.447879 38.328014 
L 169.278182 40.634492 
L 180.108485 34.940374 
L 190.938788 68.600542 
L 201.769091 51.085722 
L 212.599394 39.625408 
L 223.429697 69.249239 
L 234.26 60.023326 
L 245.090303 77.177759 
L 255.920606 39.769563 
L 266.750909 78.330998 
L 277.581212 32.561818 
L 288.411515 40.12995 
L 299.241818 74.943358 
L 310.072121 67.231071 
L 320.902424 93.323107 
L 331.732727 94.260114 
L 342.56303 86.331595 
L 353.393333 79.772547 
L 364.223636 47.77016 
L 375.053939 99.017226 
L 385.884242 100.02631 
L 396.714545 230.198182 
" style="fill:none;stroke:#1f77b4;stroke-linecap:square;stroke-width:1.5;"/>
   </g>
   <g id="patch_3">
    <path d="M 55.56 240.08 
L 55.56 22.68 
" style="fill:none;stroke:#000000;stroke-linecap:square;stroke-linejoin:miter;stroke-width:0.8;"/>
   </g>
   <g id="patch_4">
    <path d="M 412.96 240.08 
L 412.96 22.68 
" style="fill:none;stroke:#000000;stroke-linecap:square;stroke-linejoin:miter;stroke-width:0.8;"/>
   </g>
   <g id="patch_5">
    <path d="M 55.56 240.08 
L 412.96 240.08 
" style="fill:none;stroke:#000000;stroke-linecap:square;stroke-linejoin:miter;stroke-width:0.8;"/>
   </g>
   <g id="patch_6">
    <path d="M 55.56 22.68 
L 412.96 22.68 
" style="fill:none;stroke:#000000;stroke-linecap:square;stroke-linejoin:miter;stroke-width:0.8;"/>
   </g>
   <g id="text_43">
    <!--   -->
    <g transform="translate(190.938788 127.272162)scale(0.14 -0.14)">
     <defs>
      <path d="M 3085 3552 
L 3661 3552 
L 3661 4966 
L 4397 4966 
L 4397 -755 
L 3661 -755 
L 3661 1562 
L 2867 1562 
L 2867 2221 
L 3667 2221 
L 3667 2893 
L 2944 2893 
Q 2726 2099 2278 1456 
Q 1830 813 1075 314 
L 518 819 
Q 1011 1133 1347 1494 
Q 1683 1856 1894 2243 
Q 2106 2630 2208 3046 
Q 2310 3462 2330 3885 
Q 2074 3872 1856 3872 
Q 1638 3872 1389 3872 
L 845 3872 
L 845 4525 
L 1741 4525 
Q 2125 4525 2483 4528 
Q 2842 4531 3174 4538 
Q 3162 4282 3142 4035 
Q 3123 3789 3085 3552 
z
M 5574 -902 
L 4832 -902 
L 4832 5030 
L 5574 5030 
L 5574 -902 
z
" id="D2CodingBold-acc4" transform="scale(0.015625)"/>
      <path d="M 5120 4275 
L 5984 4275 
L 5984 3622 
L 5114 3622 
L 5114 3085 
L 5984 3085 
L 5984 2438 
L 5120 2438 
L 5120 1581 
L 4333 1581 
L 4333 5030 
L 5120 5030 
L 5120 4275 
z
M 4333 -915 
L 4333 678 
L 1299 678 
L 1299 1331 
L 5120 1331 
L 5120 -915 
L 4333 -915 
z
M 570 3379 
Q 570 3693 685 3968 
Q 800 4243 1005 4448 
Q 1210 4653 1491 4771 
Q 1773 4890 2112 4890 
Q 2458 4890 2742 4771 
Q 3027 4653 3232 4448 
Q 3437 4243 3552 3968 
Q 3667 3693 3667 3379 
Q 3667 3059 3552 2787 
Q 3437 2515 3232 2313 
Q 3027 2112 2742 1997 
Q 2458 1882 2112 1882 
Q 1773 1882 1491 1997 
Q 1210 2112 1005 2313 
Q 800 2515 685 2790 
Q 570 3066 570 3379 
z
M 1357 3379 
Q 1357 3002 1561 2771 
Q 1766 2541 2112 2541 
Q 2470 2541 2675 2771 
Q 2880 3002 2880 3379 
Q 2880 3757 2675 3990 
Q 2470 4224 2112 4224 
Q 1773 4224 1565 3990 
Q 1357 3757 1357 3379 
z
" id="D2CodingBold-c57d" transform="scale(0.015625)"/>
      <path d="M 6010 3302 
L 5120 3302 
L 5120 2131 
L 4333 2131 
L 4333 5030 
L 5120 5030 
L 5120 3968 
L 6010 3968 
L 6010 3302 
z
M 5242 -838 
L 1370 -838 
L 1370 864 
L 4339 864 
L 4339 1229 
L 1370 1229 
L 1370 1882 
L 5120 1882 
L 5120 218 
L 2157 218 
L 2157 -186 
L 5242 -186 
L 5242 -838 
z
M 1933 2330 
L 710 2330 
L 710 4845 
L 1517 4845 
L 1517 2970 
L 2112 2970 
Q 2675 2970 3171 3037 
Q 3667 3104 4166 3232 
L 4166 2598 
Q 3706 2464 3120 2397 
Q 2534 2330 1933 2330 
z
" id="D2CodingBold-b0a0" transform="scale(0.015625)"/>
      <path d="M 6061 2221 
L 5248 2221 
L 5248 -902 
L 4474 -902 
L 4474 1158 
L 4045 787 
Q 3802 1024 3606 1277 
Q 3411 1530 3258 1824 
Q 3034 1357 2749 937 
Q 2464 518 2112 173 
L 1478 557 
Q 1824 890 2112 1270 
Q 2400 1651 2614 2064 
Q 2829 2477 2953 2928 
Q 3078 3379 3098 3859 
Q 2982 3846 2864 3846 
Q 2746 3846 2624 3846 
L 2330 3846 
L 2330 4518 
L 2765 4518 
Q 3021 4518 3277 4521 
Q 3533 4525 3872 4538 
Q 3866 4077 3795 3625 
Q 3725 3174 3597 2739 
Q 3744 2317 3958 1990 
Q 4173 1664 4474 1382 
L 4474 5030 
L 5248 5030 
L 5248 2893 
L 6061 2893 
L 6061 2221 
z
M 154 1242 
Q 736 1798 1075 2451 
Q 1414 3104 1440 3859 
Q 1293 3846 1129 3846 
Q 966 3846 813 3846 
L 570 3846 
L 570 4518 
L 992 4518 
Q 1267 4518 1555 4521 
Q 1843 4525 2214 4538 
Q 2202 4070 2147 3657 
Q 2093 3245 1984 2874 
Q 2074 2650 2195 2438 
Q 2317 2227 2458 2061 
Q 2362 1888 2269 1753 
Q 2176 1619 1997 1421 
Q 1786 1690 1632 1997 
Q 1466 1683 1242 1395 
Q 1018 1107 730 819 
L 154 1242 
z
" id="D2CodingBold-c9dc" transform="scale(0.015625)"/>
      <path d="M 4595 5030 
L 5389 5030 
L 5389 -902 
L 4595 -902 
L 4595 5030 
z
M 794 666 
L 794 4595 
L 1600 4595 
L 1600 3238 
L 2874 3238 
L 2874 4595 
L 3654 4595 
L 3654 666 
L 794 666 
z
M 2874 2586 
L 1594 2586 
L 1594 1318 
L 2874 1318 
L 2874 2586 
z
" id="D2CodingBold-be44" transform="scale(0.015625)"/>
      <path d="M 3744 1658 
L 3744 2118 
L 2643 2118 
L 2643 1658 
L 3744 1658 
z
M 1862 1658 
L 1862 2112 
L 397 2112 
L 397 2720 
L 6003 2720 
L 6003 2112 
L 4518 2112 
L 4518 1658 
L 5139 1658 
L 5139 90 
L 2042 90 
L 2042 -269 
L 5286 -269 
L 5286 -902 
L 1254 -902 
L 1254 678 
L 4346 678 
L 4346 1024 
L 1254 1024 
L 1254 1658 
L 1862 1658 
z
M 5184 3974 
Q 5184 3738 5069 3542 
Q 4954 3347 4710 3203 
Q 4467 3059 4092 2979 
Q 3718 2899 3194 2899 
Q 2669 2899 2294 2979 
Q 1920 3059 1677 3203 
Q 1434 3347 1318 3542 
Q 1203 3738 1203 3974 
Q 1203 4211 1318 4406 
Q 1434 4602 1677 4746 
Q 1920 4890 2294 4970 
Q 2669 5050 3194 5050 
Q 3718 5050 4092 4970 
Q 4467 4890 4710 4746 
Q 4954 4602 5069 4406 
Q 5184 4211 5184 3974 
z
M 2042 3962 
Q 2042 3866 2102 3776 
Q 2163 3686 2297 3619 
Q 2432 3552 2653 3510 
Q 2874 3469 3194 3469 
Q 3514 3469 3734 3510 
Q 3955 3552 4089 3619 
Q 4224 3686 4285 3776 
Q 4346 3866 4346 3962 
Q 4346 4058 4285 4150 
Q 4224 4243 4089 4310 
Q 3955 4378 3734 4419 
Q 3514 4461 3194 4461 
Q 2874 4461 2653 4419 
Q 2432 4378 2297 4310 
Q 2163 4243 2102 4150 
Q 2042 4058 2042 3962 
z
" id="D2CodingBold-c728" transform="scale(0.015625)"/>
     </defs>
     <use xlink:href="#D2CodingBold-acc4"/>
     <use x="99.999985" xlink:href="#D2CodingBold-c57d"/>
     <use x="199.999969" xlink:href="#D2CodingBold-b0a0"/>
     <use x="299.999954" xlink:href="#D2CodingBold-c9dc"/>
     <use x="399.999939" xlink:href="#D2CodingBold-20"/>
     <use x="449.999924" xlink:href="#D2CodingBold-be44"/>
     <use x="549.999908" xlink:href="#D2CodingBold-c728"/>
    </g>
   </g>
   <g id="text_44">
    <!-- $sign\_day$ ratio -->
    <g transform="translate(189.8 16.68)scale(0.12 -0.12)">
     <use transform="translate(0 0.90625)" xlink:href="#DejaVuSans-Oblique-73"/>
     <use transform="translate(52.099609 0.90625)" xlink:href="#DejaVuSans-Oblique-69"/>
     <use transform="translate(79.882812 0.90625)" xlink:href="#DejaVuSans-Oblique-67"/>
     <use transform="translate(143.359375 0.90625)" xlink:href="#DejaVuSans-Oblique-6e"/>
     <use transform="translate(206.738281 0.90625)" xlink:href="#DejaVuSans-5f"/>
     <use transform="translate(256.738281 0.90625)" xlink:href="#DejaVuSans-Oblique-64"/>
     <use transform="translate(320.214844 0.90625)" xlink:href="#DejaVuSans-Oblique-61"/>
     <use transform="translate(381.494141 0.90625)" xlink:href="#DejaVuSans-Oblique-79"/>
     <use transform="translate(440.673828 0.90625)" xlink:href="#D2CodingBold-20"/>
     <use transform="translate(490.673813 0.90625)" xlink:href="#D2CodingBold-72"/>
     <use transform="translate(540.673798 0.90625)" xlink:href="#D2CodingBold-61"/>
     <use transform="translate(590.673782 0.90625)" xlink:href="#D2CodingBold-74"/>
     <use transform="translate(640.673767 0.90625)" xlink:href="#D2CodingBold-69"/>
     <use transform="translate(690.673752 0.90625)" xlink:href="#D2CodingBold-6f"/>
    </g>
   </g>
  </g>
 </g>
 <defs>
  <clipPath id="p79f80d7237">
   <rect height="217.4" width="357.4" x="55.56" y="22.68"/>
  </clipPath>
 </defs>
</svg>
